<svg width="17" height="16" viewBox="0 0 17 16" fill="none" xmlns="http://www.w3.org/2000/svg">
<g id="clarity:copy-line" clip-path="url(#clip0_496_1673)">
<path id="Vector" d="M13.6111 3.11111H5.16667C4.98986 3.11111 4.82029 3.18135 4.69526 3.30638C4.57024 3.4314 4.5 3.60097 4.5 3.77778V14.4444C4.5 14.6213 4.57024 14.7908 4.69526 14.9159C4.82029 15.0409 4.98986 15.1111 5.16667 15.1111H13.6111C13.7879 15.1111 13.9575 15.0409 14.0825 14.9159C14.2075 14.7908 14.2778 14.6213 14.2778 14.4444V3.77778C14.2778 3.60097 14.2075 3.4314 14.0825 3.30638C13.9575 3.18135 13.7879 3.11111 13.6111 3.11111ZM13.3889 14.2222H5.38889V4H13.3889V14.2222Z" fill="#A87BFF"/>
<path id="Vector_2" d="M12.0556 1.55555C12.0556 1.37874 11.9853 1.20917 11.8603 1.08415C11.7353 0.959123 11.5657 0.888885 11.3889 0.888885H2.94445C2.76763 0.888885 2.59806 0.959123 2.47304 1.08415C2.34802 1.20917 2.27778 1.37874 2.27778 1.55555V12.2222C2.27778 12.399 2.34802 12.5686 2.47304 12.6936C2.59806 12.8186 2.76763 12.8889 2.94445 12.8889H3.16667V1.77777H12.0556V1.55555Z" fill="#A87BFF"/>
</g>
<defs>
<clipPath id="clip0_496_1673">
<rect width="16" height="16" fill="white" transform="translate(0.5)"/>
</clipPath>
</defs>
</svg>
