<svg width="50" height="50" viewBox="0 0 50 50" fill="none" xmlns="http://www.w3.org/2000/svg">
<path d="M36.013 19.3947C35.8203 19.2015 35.5913 19.0483 35.3393 18.9438C35.0873 18.8392 34.8171 18.7854 34.5442 18.7854C34.2714 18.7854 34.0012 18.8392 33.7492 18.9438C33.4972 19.0483 33.2682 19.2015 33.0755 19.3947L24.9922 27.478L16.9088 19.3947C16.5193 19.0051 15.991 18.7863 15.4401 18.7863C14.8892 18.7863 14.3609 19.0051 13.9713 19.3947C13.5818 19.7842 13.363 20.3125 13.363 20.8634C13.363 21.4143 13.5818 21.9426 13.9713 22.3322L23.5338 31.8947C23.7266 32.0878 23.9555 32.241 24.2075 32.3456C24.4596 32.4501 24.7297 32.5039 25.0026 32.5039C25.2754 32.5039 25.5456 32.4501 25.7976 32.3456C26.0497 32.241 26.2786 32.0878 26.4713 31.8947L36.0338 22.3322C36.8255 21.5405 36.8255 20.2072 36.013 19.3947Z" fill="#A87BFF"/>
</svg>
