<svg width="1530" height="777" viewBox="0 0 1530 777" fill="none" xmlns="http://www.w3.org/2000/svg">
<path d="M920.703 -238.157C868.954 -532.976 458.168 -720.741 217.41 -542.887C137.419 -483.795 96.0143 -433.485 64.7063 -339.092C-10.9567 -110.968 233.412 0.590782 388.13 184.514C597.946 433.938 724.97 624.376 1040.88 704.612C1327.71 777.463 1684.08 652.727 1791.87 603.259C1926.61 541.424 1973.88 366.866 1951.09 198.569C1923.31 -6.57121 1786.81 -154.056 1581.63 -181.556C1403.94 -205.372 1224.58 -158.464 1164.67 10.5094C1104.6 179.98 1503.32 302.917 1369.41 422.906C1315.36 471.328 1266.12 478.97 1193.69 483.31C994.673 495.234 863.936 324.572 826.34 128.774C798.44 -16.5298 946.283 -92.4267 920.703 -238.157Z" stroke="white" stroke-width="100"/>
<path d="M835.384 -4.39388C837.602 -9.3626 842.615 -10.8979 848.32 -8.35079C853.975 -5.82598 856.199 -1.01504 853.998 3.91623C852.248 7.83628 848.531 9.75547 844.679 8.72457L845.694 6.45244C848.31 6.93156 850.777 5.56278 851.925 2.99103C853.497 -0.529523 851.671 -4.0849 847.289 -6.0412C842.869 -8.01423 839.039 -7.0142 837.451 -3.45619C836.269 -0.809536 836.695 1.65657 838.603 3.28669L837.588 5.55882C834.398 3.1464 833.606 -0.411411 835.384 -4.39388Z" fill="black"/>
<path d="M846.527 22.0687C844.574 27.3085 839.662 29.2132 833.795 27.0266C827.927 24.84 825.473 20.1901 827.425 14.9504C829.378 9.71057 834.277 7.8011 840.145 9.98769C846.012 12.1743 848.48 16.8289 846.527 22.0687ZM844.4 21.2762C845.809 17.4969 843.822 14.0574 839.261 12.3578C834.713 10.6629 830.96 11.9636 829.552 15.7429C828.144 19.5222 830.13 22.9617 834.678 24.6565C839.239 26.3561 842.992 25.0555 844.4 21.2762Z" fill="black"/>
<path d="M817.991 46.4162L818.599 44.2013L833.26 48.2261L833.285 48.1338L820.421 38.0805L820.971 36.0765L837.165 34.0005L837.19 33.9082L822.53 29.8834L823.138 27.6684L842.162 32.8913L841.406 35.6468L823.73 37.8546L823.701 37.9601L837.772 48.8836L837.015 51.639L817.991 46.4162Z" fill="black"/>
<path d="M813.808 70.6786L814.164 68.4096L829.183 70.7673L829.198 70.6727L815.289 62.1232L815.612 60.0703L831.471 56.1938L831.486 56.0992L816.467 53.7415L816.823 51.4724L836.313 54.5319L835.87 57.3548L818.552 61.5283L818.535 61.6363L833.741 70.9153L833.298 73.7381L813.808 70.6786Z" fill="black"/>
<path d="M832.894 79.983L820.257 79.4968C817.279 79.3822 815.045 81.2528 814.913 84.6682C814.782 88.0837 816.865 90.1203 819.844 90.2349L832.481 90.7212L832.386 93.1803L819.585 92.6877C815.377 92.5258 812.457 89.4719 812.646 84.5809C812.834 79.69 815.98 76.8695 820.188 77.0314L832.989 77.5239L832.894 79.983Z" fill="black"/>
<path d="M812.909 100.575L812.739 98.1471L832.419 96.7651L832.587 99.1518L817.891 111.011L817.9 111.134L833.352 110.049L833.522 112.476L813.842 113.858L813.675 111.472L828.316 99.6162L828.307 99.4935L812.909 100.575Z" fill="black"/>
<path d="M814.871 120.839L814.533 118.401L834.074 115.688L834.412 118.125L814.871 120.839Z" fill="black"/>
<path d="M817.052 135.103C815.99 129.766 819.192 125.615 825.319 124.395C831.393 123.185 835.99 125.824 837.045 131.121C837.883 135.331 835.96 139.046 832.222 140.432L831.736 137.991C834.147 136.87 835.369 134.326 834.819 131.564C834.066 127.783 830.52 125.938 825.813 126.875C821.067 127.821 818.52 130.851 819.281 134.673C819.847 137.515 821.621 139.281 824.12 139.508L824.606 141.949C820.608 141.825 817.904 139.38 817.052 135.103Z" fill="black"/>
<path d="M822.636 159.097L827.693 155.897L825.929 148.25L819.982 147.587L819.401 145.069L840.259 147.723L840.806 150.095L823.217 161.615L822.636 159.097ZM837.606 149.542L828.13 148.486L829.568 154.721L837.625 149.622L837.606 149.542Z" fill="black"/>
<path d="M825.734 171.291L825.114 168.91L842.063 164.499L840.496 158.479L842.64 157.921L846.393 172.343L844.25 172.9L842.683 166.88L825.734 171.291Z" fill="black"/>
<path d="M829.101 183.589L828.431 181.221L847.414 175.849L848.084 178.217L829.101 183.589Z" fill="black"/>
<path d="M852.017 190.306C853.667 195.649 850.938 200.155 844.955 202.003C838.972 203.851 834.19 201.665 832.54 196.322C830.89 190.979 833.606 186.477 839.589 184.629C845.572 182.781 850.367 184.963 852.017 190.306ZM849.848 190.976C848.658 187.122 844.986 185.609 840.335 187.046C835.698 188.478 833.518 191.798 834.708 195.652C835.899 199.506 839.571 201.018 844.209 199.586C848.859 198.15 851.039 194.829 849.848 190.976Z" fill="black"/>
<path d="M837.701 211.303L836.899 209.005L855.525 202.504L856.314 204.762L845.248 220.065L845.289 220.181L859.913 215.076L860.715 217.374L842.089 223.875L841.301 221.616L852.315 206.332L852.274 206.216L837.701 211.303Z" fill="black"/>
<path d="M846.892 236.463L846.001 234.169L864.392 227.028L865.282 229.322L846.892 236.463Z" fill="black"/>
<path d="M856.076 258.79L855.186 256.673L869.2 250.78L869.163 250.691L852.837 250.734L852.032 248.819L863.482 237.181L863.445 237.093L849.431 242.986L848.54 240.869L866.726 233.221L867.834 235.855L855.299 248.512L855.342 248.613L873.155 248.509L874.262 251.143L856.076 258.79Z" fill="black"/>
<path d="M876.083 255.071L879.062 261.451C880.629 264.808 879.38 268.273 875.998 269.852C872.603 271.437 869.121 270.15 867.554 266.793L865.628 262.668L859.248 265.646L858.207 263.416L876.083 255.071ZM875.142 258.226L867.61 261.742L869.276 265.31C870.467 267.862 872.549 268.671 874.928 267.56C877.294 266.456 878.005 264.358 876.808 261.794L875.142 258.226Z" fill="black"/>
<path d="M882.56 273.729L875.824 277.162L877.965 281.364C879.113 283.618 880.983 284.276 883.139 283.178C885.247 282.104 885.806 280.1 884.652 277.834L882.56 273.729ZM873.887 278.149L866.931 281.693L865.814 279.5L883.392 270.543L886.75 277.134C888.475 280.52 887.534 283.792 884.367 285.406C881.919 286.654 879.342 286.294 877.524 284.443L872.3 292.23L870.99 289.66L876.028 282.351L873.887 278.149Z" fill="black"/>
<path d="M895.327 292.476C898.055 297.357 896.324 302.333 890.858 305.387C885.391 308.441 880.259 307.3 877.532 302.418C874.804 297.537 876.523 292.567 881.989 289.513C887.455 286.459 892.6 287.594 895.327 292.476ZM893.346 293.583C891.379 290.062 887.472 289.347 883.223 291.721C878.986 294.089 877.546 297.79 879.513 301.311C881.48 304.832 885.387 305.547 889.624 303.179C893.873 300.805 895.313 297.104 893.346 293.583Z" fill="black"/>
<path d="M888.41 320.314L887.14 318.238L900.174 301.738L901.523 303.942L890.308 317.678L890.351 317.748L907.687 314.019L909.035 316.223L888.41 320.314Z" fill="black"/>
<path d="M902.563 338.107L900.719 339.334L893.95 329.156L910.378 318.231L917.146 328.408L915.302 329.635L909.896 321.507L904.625 325.012L909.751 332.719L907.93 333.931L902.804 326.224L897.158 329.979L902.563 338.107Z" fill="black"/>
<path d="M914.558 358.519L913.201 356.666L925.465 347.682L925.409 347.605L909.538 351.435L908.31 349.758L916.747 335.781L916.691 335.704L904.426 344.688L903.069 342.836L918.984 331.177L920.673 333.482L911.417 348.702L911.482 348.79L928.785 344.555L930.473 346.86L914.558 358.519Z" fill="black"/>
<path d="M927.059 370.508L925.336 371.9L917.656 362.391L933.004 349.996L940.684 359.504L938.961 360.896L932.827 353.302L927.903 357.279L933.718 364.48L932.016 365.854L926.201 358.654L920.925 362.914L927.059 370.508Z" fill="black"/>
<path d="M929.733 377.057L928.119 375.236L942.884 362.151L944.471 363.942L940.042 382.299L940.123 382.391L951.716 372.117L953.33 373.938L938.565 387.023L936.978 385.233L941.367 366.912L941.285 366.82L929.733 377.057Z" fill="black"/>
<path d="M946.962 395.727L945.244 393.965L957.785 381.74L953.442 377.285L955.028 375.739L965.431 386.41L963.845 387.956L959.503 383.502L946.962 395.727Z" fill="black"/>
<path d="M974.124 404.883L973.06 401.104L970.532 404.108L969.202 402.908L971.943 400.096L968.036 399.405L968.506 397.62L972.236 398.629L970.871 395.021L972.563 394.412L973.666 398.188L976.175 395.205L977.494 396.396L974.773 399.206L978.641 399.899L978.228 401.663L974.46 400.655L975.865 404.281L974.124 404.883Z" fill="black"/>
<path d="M988.4 409.788L983.698 415.708L987.391 418.642C989.371 420.215 991.346 420.037 992.851 418.142C994.322 416.29 993.999 414.235 992.008 412.654L988.4 409.788ZM982.345 417.41L977.49 423.523L975.563 421.992L987.834 406.544L993.625 411.145C996.602 413.509 997.104 416.876 994.893 419.66C993.184 421.812 990.69 422.555 988.268 421.626L986.75 430.878L984.491 429.084L986.039 420.344L982.345 417.41Z" fill="black"/>
<path d="M1000.62 438.078L999.332 439.879L989.394 432.765L1000.88 416.723L1010.82 423.837L1009.53 425.638L1001.59 419.956L997.904 425.104L1005.43 430.491L1004.16 432.27L996.631 426.882L992.684 432.396L1000.62 438.078Z" fill="black"/>
<path d="M1014.32 446.941L1013.13 448.807L1003.04 442.347L1013.68 425.734L1015.75 427.061L1006.31 441.809L1014.32 446.941Z" fill="black"/>
<path d="M1027.31 456.985L1028.38 451.096L1021.56 447.22L1017.04 451.15L1014.8 449.873L1030.87 436.313L1032.98 437.515L1029.56 458.261L1027.31 456.985ZM1030.41 439.497L1023.22 445.759L1028.78 448.92L1030.48 439.538L1030.41 439.497Z" fill="black"/>
<path d="M1039.1 463.006L1036.89 461.918L1044.64 446.21L1039.06 443.459L1040.04 441.472L1053.4 448.062L1052.42 450.049L1046.85 447.298L1039.1 463.006Z" fill="black"/>
<path d="M1050.3 468.21L1048.06 467.207L1056.1 449.191L1058.34 450.194L1050.3 468.21Z" fill="black"/>
<path d="M1069.93 454.632C1075.14 456.665 1076.96 461.605 1074.69 467.438C1072.41 473.272 1067.72 475.654 1062.52 473.621C1057.31 471.588 1055.47 466.66 1057.75 460.827C1060.03 454.994 1064.72 452.599 1069.93 454.632ZM1069.1 456.746C1065.34 455.279 1061.87 457.213 1060.1 461.747C1058.34 466.268 1059.58 470.041 1063.34 471.507C1067.1 472.974 1070.57 471.04 1072.33 466.519C1074.1 461.985 1072.86 458.212 1069.1 456.746Z" fill="black"/>
<path d="M1077.52 478.692L1075.19 477.968L1081.06 459.132L1083.34 459.843L1089.05 477.844L1089.17 477.88L1093.77 463.09L1096.1 463.814L1090.23 482.65L1087.95 481.939L1082.22 463.991L1082.11 463.954L1077.52 478.692Z" fill="black"/>
<path d="M1095.33 478.363L1097.74 478.95C1097.45 481.077 1099.09 482.926 1101.82 483.594C1104.41 484.227 1106.63 483.32 1107.09 481.434C1107.49 479.814 1106.6 478.542 1104.19 477.248L1101.89 476.01C1098.58 474.244 1097.39 472.307 1098.02 469.704C1098.8 466.516 1102.14 464.967 1106.12 465.94C1109.93 466.872 1112.14 469.805 1111.46 473.045L1109.07 472.461C1109.36 470.35 1108.01 468.683 1105.52 468.073C1103.03 467.466 1100.99 468.332 1100.53 470.205C1100.18 471.652 1101.03 472.775 1103.47 474.089L1105.34 475.11C1109.07 477.076 1110.31 478.996 1109.63 481.746C1108.78 485.252 1105.48 486.768 1101.07 485.691C1097.01 484.697 1094.73 481.805 1095.33 478.363Z" fill="black"/>
<path d="M1127.7 490.623L1125.27 490.2L1126.82 481.352L1116.15 479.49L1114.61 488.339L1112.18 487.916L1115.57 468.481L1118 468.904L1116.53 477.309L1127.2 479.17L1128.66 470.765L1131.09 471.189L1127.7 490.623Z" fill="black"/>
<path d="M1134.81 491.491L1132.37 491.176L1134.89 471.61L1137.33 471.924L1134.81 491.491Z" fill="black"/>
<path d="M1141.44 472.466L1148.46 473.087C1152.15 473.413 1154.52 476.23 1154.19 479.948C1153.86 483.68 1151 486.049 1147.31 485.722L1142.78 485.321L1142.16 492.335L1139.71 492.118L1141.44 472.466ZM1143.7 474.862L1142.97 483.142L1146.89 483.489C1149.7 483.737 1151.44 482.34 1151.67 479.726C1151.9 477.124 1150.44 475.458 1147.63 475.209L1143.7 474.862Z" fill="black"/>
<path d="M1164.66 474.069L1171.7 474.164C1175.41 474.213 1177.98 476.846 1177.93 480.578C1177.88 484.324 1175.21 486.899 1171.51 486.85L1166.95 486.788L1166.86 493.829L1164.4 493.796L1164.66 474.069ZM1167.09 476.289L1166.98 484.601L1170.92 484.654C1173.74 484.692 1175.37 483.169 1175.4 480.544C1175.44 477.933 1173.86 476.38 1171.03 476.342L1167.09 476.289Z" fill="black"/>
<path d="M1183.67 476.239L1183.99 483.792L1188.71 483.591C1191.23 483.483 1192.61 482.055 1192.51 479.638C1192.4 477.275 1190.81 475.933 1188.27 476.042L1183.67 476.239ZM1184.09 485.964L1184.42 493.764L1181.96 493.869L1181.12 474.159L1188.51 473.842C1192.31 473.68 1194.89 475.896 1195.04 479.447C1195.16 482.193 1193.76 484.387 1191.32 485.271L1196.24 493.258L1193.35 493.382L1188.8 485.763L1184.09 485.964Z" fill="black"/>
<path d="M1207.52 472.33C1213.1 471.93 1216.87 475.607 1217.32 481.853C1217.76 488.098 1214.55 492.262 1208.98 492.662C1203.4 493.062 1199.63 489.399 1199.18 483.153C1198.73 476.908 1201.94 472.73 1207.52 472.33ZM1207.68 474.594C1203.66 474.882 1201.35 478.118 1201.7 482.972C1202.05 487.814 1204.79 490.687 1208.81 490.399C1212.84 490.11 1215.14 486.875 1214.79 482.034C1214.45 477.179 1211.7 474.305 1207.68 474.594Z" fill="black"/>
<path d="M1229.26 490.628L1221.85 491.349L1219.93 471.714L1227.38 470.989C1230.74 470.662 1233.2 472.4 1233.49 475.34C1233.69 477.381 1232.37 479.431 1230.52 479.956L1230.53 480.065C1233.23 480.145 1235.12 481.856 1235.38 484.469C1235.72 487.925 1233.44 490.221 1229.26 490.628ZM1222.59 473.639L1223.21 479.939L1226.88 479.582C1229.78 479.299 1231.25 477.989 1231.04 475.866C1230.85 473.92 1229.41 472.975 1227.03 473.207L1222.59 473.639ZM1224.08 488.947L1228.68 488.5C1231.64 488.212 1233.07 486.864 1232.85 484.591C1232.63 482.319 1230.91 481.319 1227.78 481.623L1223.41 482.048L1224.08 488.947Z" fill="black"/>
<path d="M1250.68 485.843L1250.96 488.039L1239.09 489.594L1236.53 470.032L1238.97 469.713L1241.24 487.078L1250.68 485.843Z" fill="black"/>
<path d="M1266.04 483.228L1266.42 485.41L1254.38 487.52L1250.97 468.088L1263.01 465.977L1263.4 468.159L1253.78 469.845L1254.87 476.08L1263.99 474.481L1264.37 476.636L1255.25 478.234L1256.42 484.914L1266.04 483.228Z" fill="black"/>
<path d="M1289.7 479.898L1287.48 480.457L1283.77 465.711L1283.68 465.734L1281.25 481.878L1279.23 482.384L1269.47 469.302L1269.37 469.325L1273.07 484.071L1270.85 484.63L1266.04 465.495L1268.82 464.799L1279.43 479.108L1279.53 479.081L1282.13 461.458L1284.9 460.763L1289.7 479.898Z" fill="black"/>
<path d="M1300.7 468.878L1292.21 471.779L1291.5 469.683L1299.98 466.782L1300.7 468.878Z" fill="black"/>
<path d="M1304.8 468.998L1307.07 468.023C1308.12 469.892 1310.54 470.389 1313.13 469.279C1315.58 468.228 1316.81 466.169 1316.04 464.385C1315.38 462.852 1313.91 462.367 1311.21 462.784L1308.62 463.178C1304.91 463.756 1302.8 462.922 1301.74 460.459C1300.45 457.444 1302.18 454.201 1305.95 452.585C1309.56 451.038 1313.09 452.054 1314.49 455.052L1312.23 456.021C1311.2 454.16 1309.11 453.64 1306.75 454.653C1304.4 455.66 1303.29 457.579 1304.05 459.351C1304.64 460.721 1305.99 461.107 1308.73 460.691L1310.84 460.38C1315.01 459.712 1317.15 460.505 1318.26 463.106C1319.68 466.423 1317.96 469.617 1313.79 471.406C1309.94 473.055 1306.38 472.111 1304.8 468.998Z" fill="black"/>
<path d="M1321.88 444.807C1326.79 442.117 1331.75 443.885 1334.76 449.375C1337.77 454.865 1336.59 459.988 1331.69 462.678C1326.79 465.368 1321.83 463.611 1318.82 458.122C1315.81 452.632 1316.98 447.496 1321.88 444.807ZM1322.97 446.796C1319.44 448.736 1318.69 452.638 1321.04 456.905C1323.37 461.16 1327.06 462.628 1330.6 460.688C1334.13 458.748 1334.88 454.847 1332.54 450.592C1330.2 446.325 1326.51 444.856 1322.97 446.796Z" fill="black"/>
<path d="M1351.98 447.01L1353.21 448.849L1343.27 455.522L1332.28 439.139L1334.32 437.768L1344.08 452.312L1351.98 447.01Z" fill="black"/>
<path d="M1362.65 441.657L1360.74 443.154L1342.86 432.079L1344.9 430.489L1359.82 440.07L1359.88 440.02L1354.21 423.22L1356.25 421.63L1362.65 441.657Z" fill="black"/>
<path d="M1372.49 433.517L1370.62 435.122L1357.75 420.169L1359.62 418.564L1372.49 433.517Z" fill="black"/>
<path d="M1378.49 428.254L1376.78 429.983L1362.76 416.102L1364.45 414.402L1383.05 417.626L1383.14 417.538L1372.13 406.639L1373.85 404.91L1387.86 418.791L1386.18 420.491L1367.61 417.306L1367.53 417.393L1378.49 428.254Z" fill="black"/>
<path d="M1393.97 395.022C1398.51 397.813 1399.58 402.11 1396.82 406.595C1393.94 411.29 1388.67 412.192 1383.32 408.907C1378.07 405.68 1376.56 400.632 1379.45 395.926C1381.68 392.291 1385.54 390.854 1389.27 392.279L1387.91 394.48C1385.21 393.784 1382.84 394.749 1381.39 397.114C1379.26 400.573 1380.47 404.19 1384.63 406.745C1388.86 409.342 1392.78 408.832 1394.89 405.407C1396.72 402.425 1396.05 399.187 1393.23 397.455L1392.92 397.269L1390.01 402.01L1388.17 400.88L1392.37 394.042L1393.97 395.022Z" fill="black"/>
<path d="M1394.96 374.851L1392.37 377.806L1396.27 378.283L1395.99 380.052L1392.14 379.291L1393.69 382.942L1391.94 383.523L1390.75 379.847L1388.47 382.961L1387.04 381.877L1389.6 378.89L1385.73 378.417L1386.01 376.661L1389.85 377.407L1388.32 373.787L1390.02 373.171L1391.23 376.878L1393.5 373.721L1394.96 374.851Z" fill="black"/>
<path d="M1395.05 346.814C1400.23 345.557 1404.03 347.829 1405.27 352.945C1406.57 358.299 1403.49 362.674 1397.39 364.153C1391.4 365.607 1386.76 363.117 1385.46 357.749C1384.45 353.603 1386.15 349.858 1389.79 348.216L1390.4 350.727C1388 352.153 1387.01 354.517 1387.66 357.214C1388.62 361.16 1392.04 362.849 1396.78 361.699C1401.61 360.529 1404.01 357.386 1403.06 353.479C1402.24 350.078 1399.47 348.274 1396.25 349.054L1395.91 349.138L1397.22 354.546L1395.12 355.055L1393.23 347.255L1395.05 346.814Z" fill="black"/>
<path d="M1395.31 328.551L1391.11 332.817L1394.56 339.863L1400.51 339.157L1401.64 341.477L1380.73 343.632L1379.66 341.447L1394.17 326.231L1395.31 328.551ZM1382.9 341.259L1392.37 340.134L1389.55 334.389L1382.86 341.185L1382.9 341.259Z" fill="black"/>
<path d="M1381.27 307.119L1382.58 309.004L1370.11 317.693L1370.16 317.771L1386.12 314.321L1387.31 316.027L1378.54 329.798L1378.59 329.877L1391.07 321.188L1392.38 323.072L1376.19 334.348L1374.56 332.003L1384.18 317.008L1384.11 316.918L1366.72 320.739L1365.08 318.394L1381.27 307.119Z" fill="black"/>
<path d="M1376.04 300.831L1377.6 302.737L1362.31 315.211L1360.76 313.305L1376.04 300.831Z" fill="black"/>
<path d="M1371.66 295.595L1373.29 297.44L1358.5 310.494L1350.58 301.514L1352.24 300.049L1358.53 307.183L1363.62 302.696L1357.84 296.146L1359.48 294.698L1365.26 301.249L1371.66 295.595Z" fill="black"/>
<path d="M1361.31 284.162L1363 285.954L1348.63 299.472L1346.94 297.679L1361.31 284.162Z" fill="black"/>
<path d="M1347.93 273.607L1349.51 272.048L1358.11 280.731L1344.09 294.616L1335.49 285.933L1337.07 284.374L1343.94 291.309L1348.43 286.854L1341.92 280.278L1343.47 278.739L1349.99 285.314L1354.8 280.541L1347.93 273.607Z" fill="black"/>
<path d="M1332.43 282.907L1327.62 278.34C1323.38 274.31 1323.38 269.281 1327.66 264.781C1331.94 260.271 1336.96 259.997 1341.21 264.036L1346.02 268.603L1332.43 282.907ZM1332.17 279.606L1342.71 268.514L1339.8 265.755C1336.56 262.676 1332.87 262.945 1329.5 266.494C1326.1 270.072 1326.01 273.759 1329.27 276.847L1332.17 279.606Z" fill="black"/>
<path d="M1316.42 241.183L1314.1 246.702L1319.92 251.963L1325.18 249.102L1327.1 250.834L1308.48 260.597L1306.67 258.966L1314.5 239.451L1316.42 241.183ZM1309.61 257.587L1317.98 253.029L1313.24 248.74L1309.55 257.532L1309.61 257.587Z" fill="black"/>
<path d="M1300.02 252.989L1294.76 248.309C1291.99 245.845 1291.77 242.169 1294.25 239.381C1296.74 236.582 1300.45 236.386 1303.22 238.849L1306.62 241.875L1311.3 236.615L1313.14 238.251L1300.02 252.989ZM1299.64 249.719L1305.16 243.509L1302.22 240.892C1300.12 239.02 1297.89 239.101 1296.14 241.062C1294.4 243.013 1294.58 245.22 1296.7 247.102L1299.64 249.719Z" fill="black"/>
<path d="M1286.96 241.376L1281.69 236.704C1278.92 234.246 1278.69 230.57 1281.17 227.777C1283.65 224.975 1287.36 224.772 1290.13 227.23L1293.54 230.251L1298.21 224.983L1300.05 226.616L1286.96 241.376ZM1286.57 238.107L1292.09 231.887L1289.14 229.275C1287.03 227.406 1284.8 227.492 1283.06 229.455C1281.33 231.409 1281.51 233.616 1283.62 235.494L1286.57 238.107Z" fill="black"/>
<path d="M1275.17 227.994L1280.21 222.354L1276.69 219.213C1274.8 217.528 1272.82 217.592 1271.21 219.397C1269.63 221.162 1269.84 223.232 1271.73 224.925L1275.17 227.994ZM1281.65 220.732L1286.85 214.909L1288.69 216.548L1275.55 231.265L1270.03 226.339C1267.2 223.807 1266.89 220.416 1269.26 217.765C1271.09 215.715 1273.62 215.116 1275.98 216.183L1278.03 207.033L1280.18 208.954L1278.14 217.591L1281.65 220.732Z" fill="black"/>
<path d="M1256.43 214.549C1252.3 210.784 1252.36 205.516 1256.58 200.887C1260.8 196.257 1266.03 195.713 1270.16 199.478C1274.29 203.243 1274.24 208.501 1270.02 213.13C1265.81 217.76 1260.57 218.314 1256.43 214.549ZM1257.96 212.871C1260.94 215.587 1264.88 215.026 1268.15 211.427C1271.42 207.839 1271.61 203.871 1268.63 201.156C1265.65 198.44 1261.72 199.001 1258.45 202.59C1255.17 206.188 1254.98 210.155 1257.96 212.871Z" fill="black"/>
<path d="M1250.24 181.422L1247.81 186.888L1253.51 192.276L1258.83 189.532L1260.71 191.306L1241.88 200.656L1240.11 198.985L1248.37 179.647L1250.24 181.422ZM1243.08 197.672L1251.55 193.299L1246.9 188.906L1243.02 197.615L1243.08 197.672Z" fill="black"/>
<path d="M1241.4 172.355C1245.27 176.186 1244.93 181.417 1240.54 185.855C1236.18 190.254 1230.89 190.635 1227.05 186.834C1224.01 183.812 1223.52 179.657 1225.85 176.418L1227.62 178.169C1226.24 180.447 1226.65 183.239 1228.65 185.222C1231.39 187.936 1235.36 187.483 1238.74 184.075C1242.15 180.637 1242.56 176.7 1239.8 173.958C1237.74 171.917 1235.28 171.445 1233.08 172.654L1231.31 170.902C1234.7 168.77 1238.31 169.285 1241.4 172.355Z" fill="black"/>
<path d="M1222.31 153.093L1224 154.885L1217.46 161.041L1224.88 168.926L1231.42 162.77L1233.1 164.562L1218.74 178.083L1217.05 176.291L1223.26 170.444L1215.84 162.559L1209.63 168.406L1207.94 166.614L1222.31 153.093Z" fill="black"/>
<path d="M1200.67 146.551L1201.2 150.44L1204.12 147.811L1205.27 149.182L1202.17 151.592L1205.95 152.812L1205.24 154.516L1201.68 153.005L1202.54 156.766L1200.78 157.138L1200.2 153.245L1197.31 155.857L1196.17 154.497L1199.25 152.085L1195.51 150.869L1196.16 149.178L1199.76 150.693L1198.86 146.909L1200.67 146.551Z" fill="black"/>
<path d="M1194.3 118.169L1190.85 123.062L1195.41 129.451L1201.16 127.786L1202.66 129.89L1182.37 135.424L1180.96 133.443L1192.8 116.065L1194.3 118.169ZM1184.13 132.728L1193.29 130.076L1189.57 124.866L1184.08 132.662L1184.13 132.728Z" fill="black"/>
<path d="M1191.14 113.279L1192.47 115.35L1175.87 126.011L1174.54 123.94L1191.14 113.279Z" fill="black"/>
<path d="M1178.56 105.683L1183.03 113.458L1181.11 114.562L1176.64 106.787L1178.56 105.683Z" fill="black"/>
<path d="M1164.94 107.681L1161.96 101.303C1160.39 97.9471 1161.64 94.481 1165.02 92.8993C1168.41 91.3118 1171.89 92.5952 1173.46 95.9511L1175.39 100.075L1181.77 97.091L1182.81 99.32L1164.94 107.681ZM1165.88 104.524L1173.41 101.002L1171.74 97.4354C1170.55 94.8844 1168.47 94.0778 1166.09 95.1902C1163.72 96.2969 1163.01 98.3946 1164.21 100.958L1165.88 104.524Z" fill="black"/>
<path d="M1154.36 82.8917C1152.68 77.5555 1155.4 73.0386 1161.37 71.1669C1167.35 69.2951 1172.14 71.4622 1173.81 76.7984C1175.48 82.1345 1172.78 86.6474 1166.81 88.5191C1160.83 90.3908 1156.03 88.2278 1154.36 82.8917ZM1156.52 82.2133C1157.73 86.0621 1161.41 87.5603 1166.05 86.1054C1170.68 84.6547 1172.85 81.3256 1171.64 77.4768C1170.44 73.628 1166.76 72.1297 1162.13 73.5805C1157.48 75.0354 1155.32 78.3645 1156.52 82.2133Z" fill="black"/>
<path d="M1153.28 56.0676L1169.29 59.1692L1169.5 61.4837L1150.34 68.6389L1150.11 66.0794L1165.79 60.6715L1165.78 60.5626L1149.33 57.6111L1149.1 55.1333L1164.74 49.2353L1164.73 49.1263L1148.33 46.665L1148.09 44.1055L1168.23 47.6513L1168.44 49.9658L1153.27 55.9314L1153.28 56.0676Z" fill="black"/>
<path d="M1167.53 29.1728L1169.73 29.4211L1168.36 41.5667L1148.76 39.355L1150.13 27.2094L1152.33 27.4577L1151.24 37.1579L1157.53 37.8675L1158.56 28.67L1160.74 28.9152L1159.7 38.1128L1166.44 38.873L1167.53 29.1728Z" fill="black"/>
<path d="M1153.75 20.7875L1161.05 22.7468L1162.27 18.1912C1162.93 15.7483 1161.98 14.0075 1159.64 13.3803C1157.36 12.7674 1155.6 13.8814 1154.94 16.3375L1153.75 20.7875ZM1163.15 23.3102L1170.69 25.3333L1170.05 27.7102L1151 22.5974L1152.92 15.4536C1153.9 11.7827 1156.79 9.98177 1160.22 10.903C1162.88 11.6152 1164.55 13.6072 1164.66 16.1992L1173.76 13.9112L1173.01 16.6974L1164.37 18.7545L1163.15 23.3102Z" fill="black"/>
<path d="M1177.35 -1.02772L1179.42 -0.22806L1175 11.1702L1156.61 4.04724L1161.02 -7.35097L1163.08 -6.55131L1159.56 2.55196L1165.46 4.83741L1168.81 -3.79412L1170.85 -3.00433L1167.5 5.6272L1173.83 8.07555L1177.35 -1.02772Z" fill="black"/>
<path d="M1514.12 682.648C1519.43 681.451 1523.66 684.548 1525.03 690.643C1526.39 696.685 1523.87 701.346 1518.6 702.534C1514.41 703.478 1510.65 701.65 1509.17 697.947L1511.6 697.4C1512.78 699.782 1515.35 700.94 1518.1 700.32C1521.86 699.472 1523.62 695.881 1522.56 691.199C1521.5 686.478 1518.4 684.008 1514.6 684.865C1511.78 685.503 1510.06 687.321 1509.89 689.824L1507.46 690.372C1507.49 686.372 1509.86 683.608 1514.12 682.648Z" fill="black"/>
<path d="M1496.07 707.468C1490.6 708.623 1486.36 705.492 1485.07 699.365C1483.77 693.239 1486.39 688.677 1491.86 687.523C1497.33 686.368 1501.57 689.485 1502.86 695.612C1504.15 701.739 1501.54 706.314 1496.07 707.468ZM1495.6 705.248C1499.55 704.415 1501.39 700.897 1500.38 696.134C1499.38 691.385 1496.27 688.911 1492.33 689.743C1488.38 690.576 1486.54 694.094 1487.54 698.843C1488.55 703.606 1491.65 706.08 1495.6 705.248Z" fill="black"/>
<path d="M1461.14 694.048L1463.4 693.606L1466.32 708.526L1466.41 708.507L1469.69 692.513L1471.73 692.113L1480.8 705.69L1480.89 705.671L1477.97 690.752L1480.22 690.31L1484.01 709.671L1481.21 710.22L1471.36 695.375L1471.26 695.396L1467.74 712.859L1464.93 713.408L1461.14 694.048Z" fill="black"/>
<path d="M1436.6 698.498L1438.86 698.094L1441.54 713.059L1441.63 713.042L1445.17 697.104L1447.21 696.738L1456.06 710.462L1456.15 710.445L1453.48 695.48L1455.74 695.075L1459.21 714.496L1456.4 714.999L1446.8 699.994L1446.69 700.013L1442.89 717.415L1440.07 717.918L1436.6 698.498Z" fill="black"/>
<path d="M1435.54 718.678L1433.49 706.199C1433.01 703.258 1430.73 701.443 1427.36 701.996C1423.98 702.55 1422.4 704.998 1422.89 707.939L1424.93 720.418L1422.5 720.817L1420.43 708.175C1419.75 704.02 1422.16 700.549 1426.99 699.756C1431.82 698.964 1435.21 701.483 1435.89 705.638L1437.97 718.28L1435.54 718.678Z" fill="black"/>
<path d="M1411.04 702.644L1413.45 702.286L1416.35 721.8L1413.98 722.152L1401.02 708.42L1400.9 708.438L1403.18 723.76L1400.77 724.118L1397.87 704.605L1400.23 704.252L1413.19 717.93L1413.31 717.912L1411.04 702.644Z" fill="black"/>
<path d="M1393.06 705.268L1395.49 704.928L1398.22 724.468L1395.78 724.808L1393.06 705.268Z" fill="black"/>
<path d="M1378.06 706.945C1383.46 706.254 1387.38 709.735 1388.17 715.932C1388.96 722.076 1386.01 726.478 1380.65 727.165C1376.39 727.71 1372.82 725.535 1371.69 721.709L1374.16 721.393C1375.11 723.876 1377.57 725.271 1380.36 724.913C1384.18 724.424 1386.27 721.014 1385.66 716.254C1385.05 711.453 1382.2 708.703 1378.33 709.198C1375.46 709.566 1373.57 711.213 1373.18 713.69L1370.71 714.007C1371.11 710.027 1373.73 707.499 1378.06 706.945Z" fill="black"/>
<path d="M1353.52 710.195L1356.13 715.583L1363.92 714.7L1365.26 708.867L1367.83 708.576L1362.82 728.997L1360.4 729.271L1350.95 710.485L1353.52 710.195ZM1361.31 726.154L1363.44 716.86L1357.08 717.58L1361.23 726.164L1361.31 726.154Z" fill="black"/>
<path d="M1341.99 711.38L1344.43 711.137L1346.17 728.564L1352.36 727.949L1352.58 730.153L1337.75 731.627L1337.53 729.423L1343.72 728.808L1341.99 711.38Z" fill="black"/>
<path d="M1332.72 712.262L1335.17 712.04L1336.95 731.688L1334.5 731.91L1332.72 712.262Z" fill="black"/>
<path d="M1319.6 733.508C1314.03 733.942 1310.23 730.288 1309.75 724.045C1309.26 717.803 1312.45 713.619 1318.02 713.185C1323.6 712.75 1327.39 716.39 1327.88 722.633C1328.36 728.876 1325.18 733.073 1319.6 733.508ZM1319.43 731.245C1323.45 730.932 1325.73 727.682 1325.36 722.83C1324.98 717.991 1322.22 715.134 1318.2 715.447C1314.18 715.76 1311.89 719.01 1312.27 723.849C1312.65 728.701 1315.41 731.558 1319.43 731.245Z" fill="black"/>
<path d="M1305.48 714.458L1307.91 714.31L1309.11 734.002L1306.72 734.147L1295 719.344L1294.87 719.352L1295.82 734.813L1293.39 734.961L1292.19 715.27L1294.57 715.124L1306.3 729.872L1306.42 729.865L1305.48 714.458Z" fill="black"/>
<path d="M1276.64 716.014L1279.1 715.912L1279.92 735.623L1277.46 735.725L1276.64 716.014Z" fill="black"/>
<path d="M1253.63 716.751L1255.93 716.688L1256.34 731.886L1256.44 731.883L1262.31 716.65L1264.39 716.593L1271.09 731.482L1271.19 731.479L1270.77 716.282L1273.07 716.219L1273.61 735.94L1270.75 736.018L1263.49 719.75L1263.38 719.753L1257.03 736.394L1254.17 736.472L1253.63 716.751Z" fill="black"/>
<path d="M1247.28 736.579L1240.24 736.624C1236.53 736.647 1233.9 734.066 1233.88 730.334C1233.86 726.588 1236.48 723.96 1240.18 723.936L1244.74 723.907L1244.69 716.866L1247.15 716.851L1247.28 736.579ZM1244.8 734.407L1244.75 726.095L1240.81 726.12C1238 726.138 1236.39 727.693 1236.41 730.318C1236.43 732.929 1238.04 734.45 1240.87 734.432L1244.8 734.407Z" fill="black"/>
<path d="M1227.16 734.441L1227.24 726.881L1222.52 726.828C1219.99 726.8 1218.54 728.151 1218.52 730.57C1218.49 732.936 1220.01 734.361 1222.55 734.389L1227.16 734.441ZM1227.26 724.707L1227.35 716.901L1229.81 716.928L1229.59 736.656L1222.2 736.573C1218.4 736.53 1215.93 734.178 1215.97 730.624C1216 727.876 1217.52 725.76 1220 725.009L1215.53 716.769L1218.41 716.801L1222.55 724.654L1227.26 724.707Z" fill="black"/>
<path d="M1207.58 736.617C1201.99 736.453 1198.61 732.414 1198.79 726.155C1198.98 719.896 1202.59 716.077 1208.18 716.241C1213.77 716.406 1217.15 720.431 1216.97 726.69C1216.78 732.949 1213.17 736.782 1207.58 736.617ZM1207.65 734.349C1211.68 734.467 1214.3 731.48 1214.44 726.615C1214.58 721.764 1212.14 718.628 1208.11 718.51C1204.08 718.391 1201.46 721.378 1201.32 726.23C1201.18 731.095 1203.61 734.23 1207.65 734.349Z" fill="black"/>
<path d="M1187.8 715.786L1190.23 715.909L1196.49 735.981L1193.91 735.85L1188.9 718.84L1188.82 718.836L1182.11 735.251L1179.53 735.12L1187.8 715.786Z" fill="black"/>
<path d="M1165.36 716.606L1165.52 714.397L1177.71 715.258L1176.32 734.938L1164.13 734.076L1164.28 731.867L1174.02 732.555L1174.47 726.241L1165.23 725.588L1165.39 723.406L1174.62 724.059L1175.1 717.294L1165.36 716.606Z" fill="black"/>
<path d="M1139.7 712.063L1141.99 712.284L1140.53 727.416L1140.62 727.426L1148.33 713.034L1150.4 713.234L1155.21 728.835L1155.31 728.844L1156.77 713.711L1159.05 713.932L1157.16 733.569L1154.31 733.295L1149.12 716.255L1149.01 716.245L1140.65 731.975L1137.81 731.7L1139.7 712.063Z" fill="black"/>
<path d="M1124.42 712.452L1124.69 710.253L1136.82 711.724L1134.45 731.309L1122.31 729.839L1122.58 727.64L1132.27 728.814L1133.03 722.53L1123.84 721.417L1124.1 719.245L1133.29 720.359L1134.11 713.627L1124.42 712.452Z" fill="black"/>
<path d="M1120.5 709.728L1122.91 710.075L1120.1 729.602L1117.73 729.26L1109.25 712.388L1109.13 712.371L1106.92 727.703L1104.51 727.355L1107.32 707.829L1109.69 708.17L1118.18 724.988L1118.3 725.005L1120.5 709.728Z" fill="black"/>
<path d="M1094.66 705.757L1097.08 706.172L1094.13 723.435L1100.26 724.484L1099.89 726.667L1085.2 724.154L1085.57 721.971L1091.7 723.02L1094.66 705.757Z" fill="black"/>
<path d="M1065.76 712.537L1068.6 715.256L1069.25 711.385L1071.01 711.746L1070.07 715.559L1073.79 714.176L1074.29 715.954L1070.56 716.972L1073.56 719.392L1072.41 720.775L1069.55 718.077L1068.9 721.921L1067.16 721.562L1068.08 717.76L1064.39 719.122L1063.86 717.392L1067.62 716.352L1064.57 713.937L1065.76 712.537Z" fill="black"/>
<path d="M1052.76 715.277L1054.52 707.925L1049.94 706.825C1047.48 706.235 1045.76 707.23 1045.2 709.583C1044.65 711.883 1045.81 713.609 1048.28 714.202L1052.76 715.277ZM1055.03 705.811L1056.85 698.22L1059.24 698.794L1054.64 717.978L1047.45 716.253C1043.75 715.366 1041.88 712.526 1042.71 709.069C1043.35 706.397 1045.29 704.671 1047.88 704.49L1045.35 695.461L1048.16 696.134L1050.44 704.711L1055.03 705.811Z" fill="black"/>
<path d="M1025.8 692.614L1026.37 690.474L1038.18 693.616L1033.11 712.682L1021.3 709.539L1021.87 707.399L1031.3 709.909L1032.93 703.791L1023.99 701.412L1024.55 699.298L1033.49 701.677L1035.24 695.124L1025.8 692.614Z" fill="black"/>
<path d="M1014.12 689.345L1014.71 687.213L1026.24 690.451L1020.91 709.445L1018.54 708.779L1023.28 691.918L1014.12 689.345Z" fill="black"/>
<path d="M996.825 681.913L997.096 687.891L1004.61 690.153L1008.14 685.317L1010.61 686.062L997.96 702.857L995.63 702.156L994.351 681.168L996.825 681.913ZM997.697 699.651L1003.31 691.947L997.187 690.103L997.619 699.628L997.697 699.651Z" fill="black"/>
<path d="M984.56 678.033L986.902 678.787L981.538 695.459L987.46 697.364L986.781 699.473L972.595 694.908L973.274 692.8L979.195 694.705L984.56 678.033Z" fill="black"/>
<path d="M975.261 674.977L977.594 675.758L971.327 694.465L968.993 693.683L975.261 674.977Z" fill="black"/>
<path d="M954.49 689.037C949.219 687.171 947.233 682.291 949.323 676.388C951.413 670.485 956.022 667.955 961.293 669.821C966.565 671.687 968.554 676.554 966.464 682.457C964.374 688.36 959.761 690.903 954.49 689.037ZM955.247 686.898C959.049 688.244 962.456 686.201 964.08 681.613C965.7 677.038 964.338 673.307 960.536 671.96C956.734 670.614 953.328 672.657 951.708 677.232C950.083 681.82 951.445 685.551 955.247 686.898Z" fill="black"/>
<path d="M949.637 665.988L951.912 666.851L944.918 685.298L942.681 684.45L938.073 666.137L937.958 666.093L932.467 680.577L930.191 679.714L937.185 661.267L939.423 662.115L944.049 680.378L944.164 680.421L949.637 665.988Z" fill="black"/>
<path d="M931.636 664.947L929.342 664.018C929.927 661.954 928.58 659.89 925.97 658.832C923.499 657.832 921.171 658.408 920.442 660.207C919.816 661.753 920.508 663.14 922.71 664.769L924.808 666.327C927.83 668.554 928.725 670.642 927.719 673.126C926.487 676.167 922.964 677.218 919.162 675.679C915.525 674.206 913.762 670.984 914.902 667.876L917.183 668.8C916.591 670.846 917.687 672.692 920.069 673.657C922.439 674.616 924.584 674.054 925.308 672.268C925.867 670.886 925.187 669.652 922.965 668L921.257 666.718C917.853 664.233 916.91 662.155 917.972 659.532C919.327 656.186 922.81 655.163 927.017 656.867C930.894 658.437 932.729 661.629 931.636 664.947Z" fill="black"/>
<path d="M902.671 646.973L904.93 647.948L901.371 656.195L911.313 660.486L914.872 652.238L917.131 653.213L909.314 671.327L907.055 670.352L910.435 662.519L900.493 658.229L897.113 666.062L894.854 665.087L902.671 646.973Z" fill="black"/>
<path d="M895.376 643.676L897.618 644.691L889.482 662.664L887.24 661.649L895.376 643.676Z" fill="black"/>
<path d="M882.776 659.639L876.406 656.639C873.054 655.06 871.799 651.597 873.39 648.22C874.986 644.831 878.486 643.594 881.838 645.173L885.957 647.113L888.957 640.743L891.184 641.792L882.776 659.639ZM881.482 656.612L885.024 649.092L881.462 647.414C878.914 646.213 876.797 646.924 875.678 649.298C874.565 651.66 875.359 653.727 877.92 654.934L881.482 656.612Z" fill="black"/>
<path d="M861.002 649.204L854.727 646.011C851.424 644.33 850.275 640.831 851.968 637.504C853.667 634.166 857.203 633.035 860.505 634.715L864.562 636.78L867.756 630.504L869.949 631.621L861.002 649.204ZM859.801 646.138L863.57 638.729L860.061 636.944C857.551 635.667 855.412 636.312 854.222 638.651C853.038 640.979 853.769 643.069 856.291 644.352L859.801 646.138Z" fill="black"/>
<path d="M846.656 639.392L850.22 632.724L846.061 630.501C843.83 629.308 841.919 629.837 840.779 631.971C839.663 634.057 840.35 636.021 842.593 637.22L846.656 639.392ZM851.245 630.807L854.925 623.923L857.096 625.083L847.795 642.481L841.272 638.994C837.92 637.203 836.821 633.98 838.497 630.845C839.793 628.421 842.112 627.243 844.662 627.722L844.496 618.347L847.04 619.707L847.085 628.584L851.245 630.807Z" fill="black"/>
<path d="M824.347 630.07C819.484 627.311 818.382 622.159 821.472 616.713C824.562 611.266 829.543 609.581 834.406 612.34C839.27 615.099 840.378 620.239 837.288 625.686C834.198 631.132 829.211 632.829 824.347 630.07ZM825.467 628.096C828.975 630.086 832.686 628.671 835.088 624.437C837.483 620.216 836.794 616.304 833.286 614.314C829.778 612.324 826.067 613.739 823.672 617.961C821.27 622.194 821.959 626.106 825.467 628.096Z" fill="black"/>
<path d="M816.57 602.319L822.957 606.156L812.798 623.067L806.388 619.216C803.493 617.478 802.549 614.614 804.07 612.083C805.126 610.325 807.401 609.458 809.206 610.144L809.262 610.05C807.141 608.377 806.636 605.873 807.988 603.623C809.776 600.646 812.972 600.157 816.57 602.319ZM811.808 619.937L815.068 614.51L811.903 612.61C809.407 611.11 807.449 611.29 806.351 613.118C805.344 614.794 805.937 616.41 807.988 617.642L811.808 619.937ZM819.728 606.752L815.767 604.372C813.224 602.845 811.268 603.073 810.093 605.031C808.917 606.988 809.701 608.815 812.397 610.434L816.159 612.694L819.728 606.752Z" fill="black"/>
<path d="M798.311 593.638L799.489 591.762L809.632 598.13L799.143 614.839L797.059 613.53L806.371 598.697L798.311 593.638Z" fill="black"/>
<path d="M786.05 585.659L787.263 583.806L797.487 590.504L786.677 607.007L776.453 600.309L777.666 598.456L785.832 603.805L789.301 598.51L781.558 593.438L782.757 591.609L790.499 596.68L794.215 591.008L786.05 585.659Z" fill="black"/>
<path d="M767.021 569.952L768.909 571.26L760.249 583.756L760.328 583.811L774.079 575.009L775.787 576.193L772.375 592.158L772.453 592.213L781.113 579.717L783 581.025L771.764 597.241L769.415 595.613L773.194 578.205L773.105 578.143L758.133 587.795L755.784 586.167L767.021 569.952Z" fill="black"/>
<path d="M751.994 567.555L759.246 572.832L757.943 574.623L750.691 569.346L751.994 567.555Z" fill="black"/>
<path d="M750.032 564.327L748.058 562.836C749.158 560.994 748.392 558.65 746.145 556.953C744.017 555.346 741.619 555.3 740.449 556.849C739.444 558.18 739.753 559.698 741.458 561.842L743.08 563.891C745.422 566.824 745.745 569.073 744.13 571.211C742.152 573.83 738.477 573.932 735.204 571.46C732.073 569.095 731.205 565.526 733.112 562.82L735.075 564.303C733.973 566.126 734.553 568.193 736.604 569.742C738.645 571.283 740.862 571.296 742.024 569.758C742.922 568.569 742.585 567.2 740.867 565.029L739.549 563.348C736.906 560.066 736.533 557.814 738.239 555.556C740.414 552.676 744.043 552.59 747.665 555.326C751.003 557.847 751.948 561.405 750.032 564.327Z" fill="black"/>
<path d="M720.529 560.137C716.141 556.671 715.835 551.412 719.716 546.498C723.598 541.584 728.777 540.675 733.165 544.141C737.552 547.607 737.867 552.856 733.985 557.77C730.104 562.683 724.916 563.603 720.529 560.137ZM721.935 558.356C725.1 560.856 728.983 560.021 732 556.202C735.009 552.393 734.923 548.422 731.758 545.922C728.593 543.422 724.71 544.257 721.701 548.066C718.684 551.885 718.77 555.856 721.935 558.356Z" fill="black"/>
<path d="M714.098 531.997L715.503 530.285L724.761 537.884L712.243 553.133L710.341 551.571L721.453 538.035L714.098 531.997Z" fill="black"/>
<path d="M706.581 522.764L708.433 524.341L701.181 544.078L699.214 542.402L705.597 525.859L705.535 525.805L690.22 534.744L688.253 533.069L706.581 522.764Z" fill="black"/>
<path d="M696.484 514.044L698.336 515.664L685.344 530.511L683.492 528.891L696.484 514.044Z" fill="black"/>
<path d="M691.782 509.929L693.593 511.555L680.41 526.233L678.63 524.634L680.945 505.892L680.854 505.81L670.503 517.335L668.693 515.709L681.875 501.031L683.655 502.63L681.377 521.331L681.468 521.413L691.782 509.929Z" fill="black"/>
<path d="M660.186 492.032C663.825 488.135 668.249 487.944 672.096 491.537C676.123 495.297 675.958 500.642 671.676 505.229C667.467 509.736 662.221 510.206 658.184 506.436C655.066 503.525 654.424 499.465 656.562 496.093L658.451 497.857C657.231 500.365 657.705 502.883 659.733 504.777C662.701 507.548 666.487 507.08 669.818 503.513C673.205 499.885 673.485 495.939 670.547 493.195C667.989 490.807 664.681 490.823 662.423 493.242L662.181 493.502L666.248 497.299L664.774 498.878L658.908 493.401L660.186 492.032Z" fill="black"/>
<path d="M645.197 483.006L646.123 486.821L648.758 483.911L650.043 485.158L647.202 487.869L651.081 488.701L650.547 490.469L646.856 489.324L648.089 492.98L646.376 493.527L645.411 489.712L642.795 492.603L641.52 491.365L644.342 488.655L640.501 487.822L640.978 486.075L644.707 487.219L643.435 483.544L645.197 483.006Z" fill="black"/>
<path d="M626.663 459.008C630.451 455.255 634.879 455.237 638.583 458.977C642.461 462.891 642.088 468.226 637.629 472.642C633.249 476.982 627.988 477.247 624.101 473.323C621.099 470.292 620.616 466.21 622.884 462.924L624.702 464.76C623.386 467.219 623.76 469.754 625.714 471.726C628.571 474.61 632.372 474.29 635.84 470.855C639.365 467.362 639.8 463.43 636.971 460.574C634.508 458.088 631.202 457.975 628.852 460.304L628.599 460.554L632.515 464.507L630.98 466.027L625.332 460.326L626.663 459.008Z" fill="black"/>
<path d="M621.085 441.485L618.396 446.831L623.842 452.481L629.283 449.989L631.076 451.849L611.825 460.305L610.136 458.553L619.292 439.624L621.085 441.485ZM613.164 457.38L621.833 453.411L617.392 448.804L613.108 457.321L613.164 457.38Z" fill="black"/>
<path d="M603.979 423.346L605.55 425.021L594.462 435.422L594.527 435.492L609.818 429.772L611.24 431.287L604.554 446.182L604.619 446.252L615.708 435.851L617.279 437.526L602.89 451.023L600.935 448.939L608.283 432.711L608.208 432.632L591.545 438.927L589.59 436.843L603.979 423.346Z" fill="black"/>
<path d="M599.205 418.146L600.873 419.956L586.362 433.322L584.695 431.512L599.205 418.146Z" fill="black"/>
<path d="M595.895 414.548L597.552 416.367L582.971 429.656L574.904 420.805L576.541 419.313L582.951 426.346L587.963 421.778L582.078 415.321L583.694 413.847L589.579 420.304L595.895 414.548Z" fill="black"/>
<path d="M584.943 402.475L586.59 404.303L571.93 417.506L570.284 415.677L584.943 402.475Z" fill="black"/>
<path d="M571.748 391.032L573.402 389.559L581.531 398.686L566.798 411.807L558.669 402.68L560.323 401.207L566.816 408.496L571.543 404.286L565.387 397.374L567.02 395.92L573.176 402.832L578.24 398.322L571.748 391.032Z" fill="black"/>
<path d="M556.199 399.897L551.827 394.913C547.968 390.513 548.432 385.506 553.098 381.413C557.774 377.311 562.791 377.494 566.658 381.903L571.031 386.888L556.199 399.897ZM556.242 396.587L567.743 386.499L565.101 383.487C562.153 380.126 558.457 380.059 554.777 383.286C551.067 386.541 550.643 390.204 553.6 393.575L556.242 396.587Z" fill="black"/>
<path d="M544.777 356.687L541.791 361.873L546.911 367.821L552.483 365.64L554.169 367.598L534.472 374.956L532.885 373.112L543.091 354.729L544.777 356.687ZM535.974 372.112L544.853 368.637L540.678 363.787L535.921 372.05L535.974 372.112Z" fill="black"/>
<path d="M527.749 367.145L523.181 361.787C520.777 358.968 521.06 355.295 523.9 352.874C526.751 350.444 530.45 350.758 532.854 353.577L535.807 357.042L541.166 352.474L542.762 354.347L527.749 367.145ZM527.817 363.854L534.143 358.461L531.588 355.464C529.761 353.321 527.539 353.096 525.541 354.799C523.554 356.493 523.426 358.703 525.262 360.857L527.817 363.854Z" fill="black"/>
<path d="M517.323 354.907L512.778 349.53C510.386 346.7 510.684 343.029 513.534 340.619C516.395 338.201 520.093 338.53 522.484 341.36L525.424 344.836L530.801 340.291L532.39 342.17L517.323 354.907ZM517.405 351.615L523.753 346.249L521.211 343.242C519.393 341.091 517.172 340.856 515.167 342.551C513.173 344.237 513.036 346.447 514.863 348.608L517.405 351.615Z" fill="black"/>
<path d="M504.644 336.486L510.436 331.627L507.405 328.013C505.78 326.076 503.809 325.854 501.955 327.41C500.143 328.93 500.048 331.008 501.683 332.956L504.644 336.486ZM512.102 330.23L518.083 325.213L519.664 327.099L504.549 339.777L499.796 334.111C497.353 331.199 497.535 327.798 500.258 325.514C502.364 323.748 504.956 323.519 507.143 324.914L510.483 316.153L512.337 318.363L509.07 326.616L512.102 330.23Z" fill="black"/>
<path d="M488.181 320.737C484.601 316.442 485.384 311.232 490.193 307.222C495.003 303.213 500.258 303.388 503.839 307.683C507.419 311.978 506.647 317.179 501.837 321.189C497.028 325.199 491.762 325.032 488.181 320.737ZM489.925 319.283C492.507 322.381 496.479 322.363 500.218 319.246C503.945 316.138 504.678 312.234 502.095 309.137C499.513 306.039 495.541 306.057 491.813 309.165C488.075 312.282 487.342 316.186 489.925 319.283Z" fill="black"/>
<path d="M487.776 288.877L484.697 294.009L489.709 300.047L495.32 297.967L496.97 299.955L477.144 306.958L475.59 305.085L486.125 286.889L487.776 288.877ZM478.697 304.141L487.637 300.826L483.55 295.902L478.645 304.078L478.697 304.141Z" fill="black"/>
<path d="M479.278 278.099C482.747 282.291 481.9 287.464 477.086 291.448C472.315 295.396 467.017 295.256 463.574 291.095C460.837 287.788 460.765 283.606 463.397 280.611L464.984 282.528C463.394 284.66 463.526 287.479 465.322 289.648C467.78 292.619 471.777 292.559 475.474 289.499C479.202 286.413 480.005 282.537 477.521 279.535C475.673 277.302 473.273 276.59 470.966 277.577L469.38 275.66C472.957 273.871 476.497 274.739 479.278 278.099Z" fill="black"/>
<path d="M461.966 257.683L463.534 259.58L456.61 265.302L463.509 273.649L470.432 267.926L472 269.823L456.793 282.392L455.225 280.495L461.801 275.06L454.903 266.713L448.327 272.148L446.759 270.251L461.966 257.683Z" fill="black"/>
<path d="M439.671 249.653L440.176 253.546L443.113 250.94L444.254 252.321L441.135 254.705L444.9 255.955L444.176 257.654L440.632 256.114L441.459 259.882L439.697 260.24L439.154 256.343L436.238 258.931L435.105 257.561L438.206 255.175L434.479 253.928L435.143 252.243L438.726 253.787L437.862 249.996L439.671 249.653Z" fill="black"/>
<path d="M433.909 223.764L430.826 228.893L435.833 234.935L441.446 232.859L443.095 234.849L423.263 241.836L421.71 239.962L432.26 221.774L433.909 223.764ZM424.818 239.02L433.76 235.712L429.678 230.785L424.766 238.957L424.818 239.02Z" fill="black"/>
<path d="M427.975 216.616L429.548 218.509L414.37 231.113L412.798 229.22L427.975 216.616Z" fill="black"/>
<path d="M415.298 212.146L421.033 219.041L419.331 220.457L413.595 213.562L415.298 212.146Z" fill="black"/>
<path d="M401.579 215.732L397.066 210.328C394.692 207.484 395.012 203.814 397.877 201.422C400.752 199.021 404.448 199.373 406.823 202.217L409.741 205.711L415.145 201.198L416.722 203.087L401.579 215.732ZM401.681 212.441L408.062 207.113L405.538 204.091C403.733 201.929 401.513 201.681 399.498 203.363C397.493 205.037 397.343 207.247 399.157 209.419L401.681 212.441Z" fill="black"/>
<path d="M385.696 197.253C382.101 192.97 382.867 187.758 387.663 183.732C392.459 179.707 397.715 179.865 401.31 184.148C404.905 188.431 404.149 193.634 399.353 197.66C394.557 201.686 389.291 201.536 385.696 197.253ZM387.434 195.794C390.027 198.883 393.999 198.852 397.727 195.723C401.445 192.602 402.164 188.696 399.571 185.607C396.978 182.518 393.007 182.549 389.289 185.67C385.561 188.799 384.841 192.705 387.434 195.794Z" fill="black"/>
<path d="M372.292 174.777L387.041 167.83L388.579 169.573L377.345 186.657L375.644 184.73L385.103 171.109L385.03 171.027L370.016 178.355L368.369 176.49L377.502 162.5L377.43 162.418L362.741 170.114L361.04 168.187L379.386 159.159L380.924 160.902L372.201 174.675L372.292 174.777Z" fill="black"/>
<path d="M362.377 143.904L364 142.397L372.316 151.355L357.857 164.777L349.541 155.819L351.165 154.312L357.806 161.466L362.445 157.16L356.148 150.376L357.751 148.888L364.048 155.672L369.018 151.058L362.377 143.904Z" fill="black"/>
<path d="M348.161 151.181L353.623 145.954L350.361 142.546C348.612 140.719 346.632 140.627 344.884 142.3C343.175 143.936 343.217 146.016 344.975 147.853L348.161 151.181ZM355.193 144.45L360.833 139.052L362.534 140.83L348.282 154.472L343.168 149.128C340.54 146.383 340.498 142.978 343.066 140.52C345.051 138.62 347.623 138.222 349.897 139.471L352.655 130.509L354.65 132.593L351.932 141.043L355.193 144.45Z" fill="black"/>
<path d="M339.692 120.492L341.269 118.936L349.852 127.637L335.808 141.492L327.224 132.791L328.801 131.236L335.656 138.185L340.163 133.74L333.662 127.15L335.22 125.614L341.72 132.203L346.547 127.441L339.692 120.492Z" fill="black"/>
<path d="M325.691 131.233L320.973 126.574C316.809 122.462 316.912 117.435 321.273 113.018C325.644 108.591 330.661 108.414 334.834 112.535L339.552 117.194L325.691 131.233ZM325.496 127.928L336.245 117.041L333.395 114.227C330.213 111.086 326.522 111.283 323.083 114.766C319.615 118.278 319.455 121.962 322.646 125.113L325.496 127.928Z" fill="black"/>
<path d="M316.896 95.0524L318.675 96.7533L305.04 111.012L296.384 102.734L297.915 101.134L304.792 107.71L309.479 102.809L303.165 96.7711L304.677 95.1902L310.991 101.228L316.896 95.0524Z" fill="black"/>
<path d="M297.517 79.7332L299.035 78.121L307.932 86.5019L294.405 100.862L285.508 92.4814L287.026 90.8692L294.132 97.5627L298.472 92.955L291.735 86.6084L293.235 85.0161L299.972 91.3627L304.622 86.4267L297.517 79.7332Z" fill="black"/>
<path d="M286.803 66.7274L284.41 72.2125L290.157 77.5563L295.453 74.7711L297.346 76.5307L278.585 86.0257L276.803 84.3686L284.91 64.9679L286.803 66.7274ZM279.763 83.0324L288.202 78.5948L283.516 74.2378L279.703 82.9765L279.763 83.0324Z" fill="black"/>
<path d="M278.188 58.7712L279.998 60.4388L268.13 73.3188L272.705 77.534L271.204 79.1628L260.245 69.0648L261.746 67.436L266.321 71.6512L278.188 58.7712Z" fill="black"/>
<path d="M255.905 65.0894L264.449 55.7655C266.462 53.5681 266.48 50.6546 263.96 48.3454C261.44 46.0363 258.539 46.3081 256.526 48.5055L247.982 57.8294L246.168 56.1668L254.822 46.7219C257.667 43.6173 261.885 43.3655 265.493 46.6722C269.102 49.9789 269.219 54.2025 266.374 57.3071L257.719 66.752L255.905 65.0894Z" fill="black"/>
<path d="M242.701 50.0246L247.807 44.4487L244.328 41.2632C242.463 39.555 240.481 39.5938 238.847 41.3785C237.249 43.1229 237.427 45.1955 239.303 46.9129L242.701 50.0246ZM249.275 42.8455L254.547 37.0881L256.362 38.7501L243.038 53.2998L237.584 48.3046C234.78 45.7378 234.515 42.3432 236.916 39.7216C238.772 37.6949 241.311 37.1284 243.662 38.2249L245.825 29.1013L247.953 31.0495L245.796 39.66L249.275 42.8455Z" fill="black"/>
<path d="M233.125 20.4452L234.623 18.8144L243.623 27.0854L230.272 41.6108L221.273 33.3398L222.772 31.7091L229.959 38.3148L234.243 33.6542L227.428 27.3908L228.908 25.7803L235.723 32.0436L240.312 27.0508L233.125 20.4452Z" fill="black"/>
<path d="M228.825 20.8598L227.01 19.1782C228.289 17.4556 227.761 15.0474 225.695 13.1335C223.739 11.3218 221.358 11.0356 220.039 12.4599C218.905 13.6835 219.061 15.2255 220.542 17.5294L221.952 19.7297C223.988 22.8831 224.084 25.1529 222.263 27.1188C220.034 29.5259 216.366 29.2599 213.357 26.4726C210.479 23.8062 209.972 20.1686 212.14 17.667L213.946 19.3394C212.666 21.0427 213.037 23.1569 214.923 24.9035C216.798 26.6409 219.003 26.8758 220.313 25.4616C221.326 24.3683 221.128 22.9731 219.636 20.6406L218.493 18.8365C216.191 15.3063 216.045 13.0286 217.969 10.9524C220.421 8.30451 224.041 8.58206 227.371 11.6666C230.44 14.5096 231.024 18.1443 228.825 20.8598Z" fill="black"/>
<path d="M198.98 2.09715L199.961 5.89846L202.554 2.95032L203.857 4.17927L201.055 6.9304L204.947 7.70662L204.438 9.48171L200.73 8.39063L202.017 12.0283L200.312 12.6003L199.292 8.80014L196.717 11.7284L195.425 10.5088L198.207 7.75825L194.354 6.9809L194.806 5.22683L198.552 6.31679L197.227 2.66092L198.98 2.09715Z" fill="black"/>
<path d="M194.751 -19.1134C198.659 -15.3267 198.384 -10.0916 194.036 -5.60467C189.726 -1.15697 184.444 -0.716144 180.566 -4.47426C177.483 -7.46173 176.953 -11.6109 179.242 -14.8763L181.029 -13.1447C179.682 -10.8514 180.122 -8.06404 182.145 -6.10411C184.914 -3.42109 188.88 -3.91857 192.219 -7.3648C195.587 -10.8405 195.96 -14.7815 193.162 -17.4931C191.081 -19.5101 188.618 -19.9548 186.433 -18.7215L184.646 -20.4531C188.005 -22.6234 191.619 -22.1484 194.751 -19.1134Z" fill="black"/>
</svg>
