<svg width="36" height="36" viewBox="0 0 36 36" fill="none" xmlns="http://www.w3.org/2000/svg">
<path d="M13.4996 24.3L8.2496 19.05C8.11231 18.911 7.94881 18.8007 7.76857 18.7254C7.58833 18.6501 7.39493 18.6113 7.1996 18.6113C7.00426 18.6113 6.81086 18.6501 6.63062 18.7254C6.45038 18.8007 6.28688 18.911 6.1496 19.05C6.01064 19.1873 5.90031 19.3508 5.82501 19.531C5.74971 19.7113 5.71094 19.9047 5.71094 20.1C5.71094 20.2953 5.74971 20.4887 5.82501 20.669C5.90031 20.8492 6.01064 21.0127 6.1496 21.15L12.4346 27.435C13.0196 28.02 13.9646 28.02 14.5496 27.435L30.4496 11.55C30.5886 11.4127 30.6989 11.2492 30.7742 11.069C30.8495 10.8887 30.8883 10.6953 30.8883 10.5C30.8883 10.3047 30.8495 10.1113 30.7742 9.93103C30.6989 9.75079 30.5886 9.58728 30.4496 9.45C30.3123 9.31104 30.1488 9.20071 29.9686 9.12541C29.7883 9.05011 29.5949 9.01134 29.3996 9.01134C29.2043 9.01134 29.0109 9.05011 28.8306 9.12541C28.6504 9.20071 28.4869 9.31104 28.3496 9.45L13.4996 24.3Z" fill="#A87BFF"/>
</svg>
