<svg width="174" height="60" viewBox="0 0 174 60" fill="none" xmlns="http://www.w3.org/2000/svg">
<g id="logo_color 2">
<path id="Vector" d="M40.4659 8.65421C40.4659 7.08149 39.194 5.80225 37.6312 5.80225C36.484 5.80225 35.4943 6.49107 35.0484 7.47859C34.6025 6.49107 33.6129 5.80225 32.4665 5.80225C30.9029 5.80225 29.6318 7.08149 29.6318 8.65421C29.6318 8.98599 29.6881 9.30384 29.7929 9.60079C29.9115 9.93868 30.0907 10.2461 30.3193 10.5125C30.4163 10.6266 30.5219 10.732 30.6362 10.8287L34.9601 15.1488C34.987 15.1758 35.0216 15.1889 35.0562 15.1889C35.0909 15.1889 35.1263 15.1758 35.1532 15.1488L39.6382 10.6676C39.9291 10.3741 40.1568 10.0188 40.2996 9.62169C40.4079 9.31952 40.4676 8.99383 40.4676 8.65508L40.4659 8.65421Z" fill="#BF9EFF"/>
<path id="Vector_2" d="M26.4035 48.769C26.4035 50.3853 25.5783 51.6079 23.9281 52.4369C22.6259 53.0918 21.0838 53.4192 19.3037 53.4192C16.6985 53.4192 14.4681 52.4848 12.6118 50.616C10.7554 48.7472 9.82728 46.5005 9.82728 43.8776V24.8256H5.10509C3.51977 24.8256 2.72754 24.0288 2.72754 22.4343C2.72754 20.8398 3.51977 20.0761 5.10509 20.0761H9.82728V8.1867C9.82728 6.59309 10.6143 5.79541 12.1884 5.79541C13.7624 5.79541 14.5495 6.59309 14.5495 8.1867V20.0761H19.2717C20.8561 20.0761 21.6492 20.8625 21.6492 22.4343C21.6492 24.0062 20.8561 24.8256 19.2717 24.8256H14.5495V43.881C14.5495 45.1934 15.0118 46.3194 15.9374 47.259C16.8621 48.1995 17.9781 48.6697 19.2847 48.6697C20.3514 48.6697 21.3739 48.277 22.354 47.4906C23.3333 46.7043 24.0519 46.3115 24.509 46.3115C25.7714 46.3115 26.4026 47.1301 26.4026 48.7681L26.4035 48.769Z" fill="#8B4FFF"/>
<path id="Vector_3" d="M37.4097 22.4377V51.0261C37.4097 52.6215 36.6227 53.42 35.0486 53.42C33.4745 53.42 32.6875 52.6223 32.6875 51.0261V22.4377C32.6875 20.8641 33.4737 20.0769 35.0486 20.0769C36.6235 20.0769 37.4097 20.8641 37.4097 22.4377Z" fill="#8B4FFF"/>
<path id="Vector_4" d="M76.9104 51.027C76.9104 52.6224 76.1173 53.4192 74.5328 53.4192C73.3164 53.4192 72.5674 52.8296 72.286 51.6505C72.1769 51.1916 72.1336 50.1109 72.1562 48.4076C68.9206 51.7481 64.9802 53.4192 60.3351 53.4192C55.6899 53.4192 51.8734 51.7916 48.6283 48.5347C45.3823 45.2778 43.7598 41.3443 43.7598 36.7315C43.7598 32.1187 45.384 28.2183 48.6335 24.9623C51.8829 21.7054 55.7895 20.0769 60.3541 20.0769C64.9187 20.0769 68.95 21.7472 72.1891 25.0886V8.19189C72.1891 6.5948 72.9752 5.79712 74.5502 5.79712C76.1251 5.79712 76.9112 6.59479 76.9112 8.18928V51.027H76.9104ZM72.1882 36.7315C72.1882 33.4738 71.0289 30.6749 68.7102 28.335C66.3915 25.9951 63.5992 24.8256 60.3342 24.8256C57.0692 24.8256 54.2769 25.9951 51.9582 28.335C49.6396 30.6749 48.4802 33.4729 48.4802 36.7315C48.4802 39.9902 49.6396 42.8212 51.9582 45.1611C54.2769 47.501 57.0683 48.6706 60.3342 48.6706C63.6001 48.6706 66.3915 47.501 68.7102 45.1611C71.0289 42.8212 72.1882 40.0119 72.1882 36.7315Z" fill="#8B4FFF"/>
<path id="Vector_5" d="M116.347 51.027C116.347 52.6224 115.554 53.4192 113.969 53.4192C112.753 53.4192 112.004 52.8296 111.723 51.6505C111.613 51.1916 111.57 50.1109 111.593 48.4076C108.357 51.7481 104.417 53.4192 99.7716 53.4192C95.1265 53.4192 91.3099 51.7916 88.0648 48.5347C84.8188 45.2778 83.1963 41.3443 83.1963 36.7315C83.1963 32.1187 84.8206 28.2183 88.07 24.9623C91.3194 21.7054 95.226 20.0769 99.7907 20.0769C104.355 20.0769 108.387 21.7472 111.626 25.0886V8.19189C111.626 6.5948 112.412 5.79712 113.987 5.79712C115.562 5.79712 116.348 6.59479 116.348 8.18928V51.027H116.347ZM111.625 36.7315C111.625 33.4738 110.465 30.6749 108.147 28.335C105.828 25.9951 103.036 24.8256 99.7707 24.8256C96.5057 24.8256 93.7134 25.9951 91.3948 28.335C89.0761 30.6749 87.9168 33.4729 87.9168 36.7315C87.9168 39.9902 89.0761 42.8212 91.3948 45.1611C93.7134 47.501 96.5048 48.6706 99.7707 48.6706C103.037 48.6706 105.828 47.501 108.147 45.1611C110.465 42.8212 111.625 40.0119 111.625 36.7315Z" fill="#8B4FFF"/>
<path id="Vector_6" d="M136.015 51.0289C136.015 52.6233 135.222 53.4202 133.638 53.4202C131.054 53.4202 128.834 52.4858 126.978 50.6178C125.122 48.7499 124.193 46.5049 124.193 43.8829V8.19026C124.193 6.59577 124.986 5.7981 126.571 5.7981C128.156 5.7981 128.916 6.59577 128.916 8.19113V43.8863C128.916 45.1978 129.382 46.3229 130.316 47.2625C131.249 48.2022 132.356 48.6715 133.637 48.6715C135.221 48.6715 136.014 49.4579 136.014 51.0297L136.015 51.0289Z" fill="#8B4FFF"/>
<path id="Vector_7" d="M170.436 43.8557C170.436 44.2276 170.327 44.6421 170.111 45.1001C168.786 47.6116 166.783 49.6258 164.103 51.1428C161.421 52.6607 158.637 53.4191 155.75 53.4191C151.191 53.4191 147.288 51.7916 144.043 48.5347C140.797 45.2778 139.175 41.3443 139.175 36.7315C139.175 32.1187 140.797 28.2183 144.043 24.9622C147.288 21.7054 151.192 20.0769 155.75 20.0769C157.379 20.0769 159.083 20.3826 160.863 20.9948C162.882 21.6949 164.857 22.8104 166.789 24.3405C169.199 26.2424 170.404 28.0354 170.404 29.7196C170.404 30.5721 170.014 31.2174 169.232 31.6546L146.893 44.6421C149.237 47.3286 152.19 48.6714 155.75 48.6714C159.31 48.6714 162.459 47.3068 164.673 44.5776C164.956 44.1631 165.406 43.5457 166.025 42.7271C166.644 41.9085 167.289 41.4993 167.963 41.4993C168.636 41.4993 169.189 41.7283 169.688 42.1872C170.188 42.6461 170.437 43.2026 170.437 43.8575L170.436 43.8557ZM164.601 28.8757C162.231 26.1753 159.275 24.8255 155.732 24.8255C152.47 24.8255 149.683 25.9959 147.368 28.3358C145.053 30.6757 143.896 33.4754 143.896 36.7341C143.896 38.0464 144.1 39.3152 144.511 40.5396L164.601 28.8757H164.601Z" fill="#8B4FFF"/>
</g>
</svg>
