<svg width="65" height="64" viewBox="0 0 65 64" fill="none" xmlns="http://www.w3.org/2000/svg">
<g id="ic:round-female">
<path id="Vector" d="M32.5 16C37.6467 16 41.8333 20.1867 41.8333 25.3333C41.8333 30.48 37.6467 34.6667 32.5 34.6667C27.3533 34.6667 23.1667 30.48 23.1667 25.3333C23.1667 20.1867 27.3533 16 32.5 16ZM35.1667 39.76C38.5376 39.1367 41.5836 37.3524 43.7758 34.7169C45.968 32.0814 47.1677 28.7613 47.1667 25.3333C47.1667 17.2267 40.6067 10.6667 32.5 10.6667C24.3933 10.6667 17.8333 17.2267 17.8333 25.3333C17.8323 28.7613 19.0321 32.0814 21.2242 34.7169C23.4164 37.3524 26.4625 39.1367 29.8333 39.76V45.3333H27.1667C25.7 45.3333 24.5 46.5333 24.5 48C24.5 49.4667 25.7 50.6667 27.1667 50.6667H29.8333V53.3333C29.8333 54.8 31.0333 56 32.5 56C33.9667 56 35.1667 54.8 35.1667 53.3333V50.6667H37.8333C39.3 50.6667 40.5 49.4667 40.5 48C40.5 46.5333 39.3 45.3333 37.8333 45.3333H35.1667V39.76Z" fill="#A87BFF"/>
</g>
</svg>
