<svg width="65" height="64" viewBox="0 0 65 64" fill="none" xmlns="http://www.w3.org/2000/svg">
<g id="ic:round-male">
<path id="Vector" d="M51.1667 10.6667H40.5C39.0334 10.6667 37.8334 11.8667 37.8334 13.3333C37.8334 14.8 39.0334 16 40.5 16H44.7134L34.1267 26.5867C31.78 24.96 28.9267 24 25.8334 24C17.7267 24 11.1667 30.56 11.1667 38.6667C11.1667 46.7733 17.7267 53.3333 25.8334 53.3333C33.94 53.3333 40.5 46.7733 40.5 38.6667C40.5 35.5733 39.54 32.72 37.9134 30.3467L48.5 19.7867V24C48.5 25.4667 49.7 26.6667 51.1667 26.6667C52.6334 26.6667 53.8334 25.4667 53.8334 24V13.3333C53.8334 11.8667 52.6334 10.6667 51.1667 10.6667ZM25.8334 48C20.6867 48 16.5 43.8133 16.5 38.6667C16.5 33.52 20.6867 29.3333 25.8334 29.3333C30.98 29.3333 35.1667 33.52 35.1667 38.6667C35.1667 43.8133 30.98 48 25.8334 48Z" fill="#A87BFF"/>
</g>
</svg>
