<svg width="28" height="28" viewBox="0 0 28 28" fill="none" xmlns="http://www.w3.org/2000/svg">
<g id="devicon:google" clip-path="url(#clip0_359_969)">
<path id="Vector" d="M9.95625 1.54371C7.29184 2.46801 4.99405 4.22238 3.4004 6.54913C1.80675 8.87587 1.00123 11.6523 1.10217 14.4707C1.20311 17.2891 2.20518 20.0008 3.9612 22.2076C5.71722 24.4144 8.13462 25.9999 10.8583 26.7312C13.0665 27.301 15.38 27.326 17.6 26.8041C19.6111 26.3524 21.4704 25.3861 22.9958 24C24.5835 22.5132 25.7359 20.6218 26.3292 18.5291C26.9738 16.2534 27.0885 13.8602 26.6646 11.5333H14.2646V16.677H21.4458C21.3023 17.4974 20.9948 18.2804 20.5416 18.9792C20.0884 19.6779 19.4989 20.2781 18.8083 20.7437C17.9315 21.324 16.943 21.7143 15.9062 21.8895C14.8666 22.0829 13.8001 22.0829 12.7604 21.8895C11.7066 21.6719 10.7097 21.237 9.83333 20.6125C8.42531 19.6158 7.36807 18.1998 6.8125 16.5666C6.24769 14.9028 6.24769 13.0992 6.8125 11.4354C7.20797 10.2692 7.86174 9.20732 8.725 8.32912C9.7129 7.30568 10.9636 6.57411 12.3399 6.2147C13.7162 5.85528 15.1649 5.88189 16.5271 6.29162C17.5912 6.61813 18.5644 7.18887 19.3687 7.95829C20.1785 7.15273 20.9868 6.34509 21.7938 5.53537C22.2104 5.09996 22.6646 4.68537 23.075 4.23954C21.8469 3.09687 20.4055 2.20767 18.8333 1.62287C15.9702 0.583268 12.8375 0.555329 9.95625 1.54371Z" fill="white"/>
<path id="Vector_2" d="M9.95625 1.54374C12.8372 0.554693 15.97 0.581896 18.8333 1.62082C20.4058 2.2096 21.8466 3.10307 23.0729 4.24999C22.6563 4.69582 22.2167 5.11249 21.7917 5.54582C20.9833 6.35277 20.1757 7.15694 19.3687 7.95832C18.5644 7.1889 17.5912 6.61817 16.5271 6.29166C15.1654 5.88049 13.7167 5.85234 12.34 6.21029C10.9634 6.56824 9.7119 7.29845 8.72292 8.32082C7.85965 9.19902 7.20589 10.2609 6.81042 11.4271L2.49167 8.08332C4.03752 5.01783 6.71406 2.67296 9.95625 1.54374Z" fill="#E33629"/>
<path id="Vector_3" d="M1.34583 11.3958C1.57779 10.2453 1.96318 9.13115 2.49167 8.08325L6.81042 11.4353C6.2456 13.0991 6.2456 14.9028 6.81042 16.5666C5.37153 17.6777 3.93194 18.7944 2.49167 19.9166C1.16906 17.2839 0.765692 14.2843 1.34583 11.3958Z" fill="#F8BD00"/>
<path id="Vector_4" d="M14.2646 11.5312H26.6646C27.0885 13.8582 26.9738 16.2514 26.3292 18.5271C25.7359 20.6197 24.5835 22.5111 22.9958 23.9979C21.6021 22.9104 20.2021 21.8313 18.8083 20.7438C19.4993 20.2777 20.0891 19.6769 20.5423 18.9774C20.9955 18.2779 21.3028 17.494 21.4458 16.6729H14.2646C14.2625 14.9604 14.2646 13.2458 14.2646 11.5312Z" fill="#587DBD"/>
<path id="Vector_5" d="M2.48958 19.9167C3.92986 18.8055 5.36944 17.6889 6.80833 16.5667C7.36501 18.2004 8.42376 19.6164 9.83333 20.6125C10.7124 21.2341 11.7114 21.6655 12.7667 21.8792C13.8064 22.0725 14.8728 22.0725 15.9125 21.8792C16.9492 21.7039 17.9378 21.3136 18.8146 20.7333C20.2083 21.8208 21.6083 22.9 23.0021 23.9875C21.4769 25.3744 19.6175 26.3414 17.6062 26.7937C15.3863 27.3156 13.0728 27.2906 10.8646 26.7208C9.11813 26.2545 7.48682 25.4325 6.07292 24.3062C4.57651 23.1179 3.35424 21.6207 2.48958 19.9167Z" fill="#319F43"/>
</g>
<defs>
<clipPath id="clip0_359_969">
<rect width="26.6667" height="26.6667" fill="white" transform="translate(0.666666 0.666626)"/>
</clipPath>
</defs>
</svg>
