<svg width="174" height="60" viewBox="0 0 174 60" fill="none" xmlns="http://www.w3.org/2000/svg">
<g id="logo_color 2">
<path id="Vector" d="M40.4659 8.65421C40.4659 7.08149 39.194 5.80225 37.6312 5.80225C36.484 5.80225 35.4944 6.49107 35.0485 7.47859C34.6026 6.49107 33.613 5.80225 32.4666 5.80225C30.9029 5.80225 29.6319 7.08149 29.6319 8.65421C29.6319 8.98599 29.6882 9.30384 29.7929 9.60079C29.9116 9.93868 30.0908 10.2461 30.3194 10.5125C30.4163 10.6266 30.522 10.732 30.6363 10.8287L34.9602 15.1488C34.987 15.1758 35.0216 15.1889 35.0563 15.1889C35.0909 15.1889 35.1264 15.1758 35.1533 15.1488L39.6382 10.6676C39.9291 10.3741 40.1568 10.0188 40.2997 9.62169C40.4079 9.31952 40.4677 8.99383 40.4677 8.65508L40.4659 8.65421Z" fill="white"/>
<path id="Vector_2" d="M26.4033 48.7689C26.4033 50.3852 25.5781 51.6078 23.9279 52.4369C22.6257 53.0917 21.0837 53.4192 19.3035 53.4192C16.6983 53.4192 14.4679 52.4848 12.6116 50.616C10.7553 48.7472 9.8271 46.5004 9.8271 43.8775V24.8255H5.1049C3.51958 24.8255 2.72736 24.0287 2.72736 22.4342C2.72736 20.8398 3.51958 20.076 5.1049 20.076H9.8271V8.18664C9.8271 6.59303 10.6141 5.79535 12.1882 5.79535C13.7623 5.79535 14.5493 6.59303 14.5493 8.18664V20.076H19.2715C20.856 20.076 21.649 20.8624 21.649 22.4342C21.649 24.0061 20.856 24.8255 19.2715 24.8255H14.5493V43.881C14.5493 45.1933 15.0116 46.3193 15.9372 47.2589C16.8619 48.1994 17.978 48.6697 19.2845 48.6697C20.3512 48.6697 21.3737 48.2769 22.3538 47.4906C23.3331 46.7042 24.0517 46.3115 24.5089 46.3115C25.7712 46.3115 26.4024 47.13 26.4024 48.7681L26.4033 48.7689Z" fill="white"/>
<path id="Vector_3" d="M37.4096 22.4377V51.0261C37.4096 52.6215 36.6226 53.42 35.0485 53.42C33.4745 53.42 32.6874 52.6223 32.6874 51.0261V22.4377C32.6874 20.8641 33.4736 20.0769 35.0485 20.0769C36.6235 20.0769 37.4096 20.8641 37.4096 22.4377Z" fill="white"/>
<path id="Vector_4" d="M76.9101 51.027C76.9101 52.6224 76.117 53.4192 74.5326 53.4192C73.3161 53.4192 72.5672 52.8296 72.2858 51.6505C72.1767 51.1916 72.1334 50.1109 72.1559 48.4076C68.9203 51.7481 64.98 53.4192 60.3348 53.4192C55.6897 53.4192 51.8731 51.7916 48.628 48.5347C45.3821 45.2778 43.7595 41.3443 43.7595 36.7315C43.7595 32.1187 45.3838 28.2183 48.6332 24.9623C51.8827 21.7054 55.7893 20.0769 60.3539 20.0769C64.9185 20.0769 68.9498 21.7472 72.1888 25.0886V8.19189C72.1888 6.5948 72.975 5.79712 74.5499 5.79712C76.1248 5.79712 76.911 6.59479 76.911 8.18928V51.027H76.9101ZM72.1879 36.7315C72.1879 33.4738 71.0286 30.6749 68.7099 28.335C66.3913 25.9951 63.599 24.8256 60.334 24.8256C57.0689 24.8256 54.2767 25.9951 51.958 28.335C49.6393 30.6749 48.48 33.4729 48.48 36.7315C48.48 39.9902 49.6393 42.8212 51.958 45.1611C54.2767 47.501 57.0681 48.6706 60.334 48.6706C63.5998 48.6706 66.3913 47.501 68.7099 45.1611C71.0286 42.8212 72.1879 40.0119 72.1879 36.7315Z" fill="white"/>
<path id="Vector_5" d="M116.347 51.027C116.347 52.6224 115.554 53.4192 113.969 53.4192C112.753 53.4192 112.004 52.8296 111.722 51.6505C111.613 51.1916 111.57 50.1109 111.592 48.4076C108.357 51.7481 104.416 53.4192 99.7714 53.4192C95.1262 53.4192 91.3097 51.7916 88.0646 48.5347C84.8186 45.2778 83.196 41.3443 83.196 36.7315C83.196 32.1187 84.8203 28.2183 88.0698 24.9623C91.3192 21.7054 95.2258 20.0769 99.7904 20.0769C104.355 20.0769 108.386 21.7472 111.625 25.0886V8.19189C111.625 6.5948 112.412 5.79712 113.986 5.79712C115.561 5.79712 116.348 6.59479 116.348 8.18928V51.027H116.347ZM111.624 36.7315C111.624 33.4738 110.465 30.6749 108.146 28.335C105.828 25.9951 103.036 24.8256 99.7705 24.8256C96.5055 24.8256 93.7132 25.9951 91.3945 28.335C89.0758 30.6749 87.9165 33.4729 87.9165 36.7315C87.9165 39.9902 89.0758 42.8212 91.3945 45.1611C93.7132 47.501 96.5046 48.6706 99.7705 48.6706C103.036 48.6706 105.828 47.501 108.146 45.1611C110.465 42.8212 111.624 40.0119 111.624 36.7315Z" fill="white"/>
<path id="Vector_6" d="M136.016 51.0287C136.016 52.6232 135.222 53.42 133.638 53.42C131.054 53.42 128.834 52.4856 126.978 50.6177C125.122 48.7498 124.194 46.5048 124.194 43.8827V8.19013C124.194 6.59565 124.986 5.79797 126.571 5.79797C128.156 5.79797 128.916 6.59565 128.916 8.19101V43.8862C128.916 45.1977 129.382 46.3228 130.316 47.2624C131.249 48.202 132.357 48.6714 133.637 48.6714C135.222 48.6714 136.015 49.4578 136.015 51.0296L136.016 51.0287Z" fill="white"/>
<path id="Vector_7" d="M170.436 43.8557C170.436 44.2276 170.327 44.6421 170.111 45.1001C168.786 47.6116 166.783 49.6258 164.103 51.1428C161.421 52.6607 158.637 53.4191 155.75 53.4191C151.191 53.4191 147.289 51.7916 144.043 48.5347C140.797 45.2778 139.175 41.3443 139.175 36.7315C139.175 32.1187 140.797 28.2183 144.043 24.9622C147.289 21.7054 151.192 20.0769 155.75 20.0769C157.379 20.0769 159.083 20.3826 160.863 20.9948C162.882 21.6949 164.857 22.8104 166.789 24.3405C169.199 26.2424 170.404 28.0354 170.404 29.7196C170.404 30.5721 170.014 31.2174 169.232 31.6546L146.893 44.6421C149.238 47.3286 152.19 48.6714 155.75 48.6714C159.31 48.6714 162.459 47.3068 164.673 44.5776C164.956 44.1631 165.406 43.5457 166.025 42.7271C166.644 41.9085 167.289 41.4993 167.963 41.4993C168.636 41.4993 169.189 41.7283 169.688 42.1872C170.188 42.6461 170.437 43.2026 170.437 43.8575L170.436 43.8557ZM164.601 28.8757C162.231 26.1753 159.275 24.8255 155.732 24.8255C152.47 24.8255 149.683 25.9959 147.368 28.3358C145.053 30.6757 143.896 33.4754 143.896 36.7341C143.896 38.0464 144.101 39.3152 144.511 40.5396L164.602 28.8757H164.601Z" fill="white"/>
</g>
</svg>
