<svg width="25" height="24" viewBox="0 0 25 24" fill="none" xmlns="http://www.w3.org/2000/svg">
<g clip-path="url(#clip0_359_766)">
<path d="M9.81002 6.70999C9.71732 6.80251 9.64377 6.91239 9.59359 7.03337C9.54341 7.15434 9.51758 7.28402 9.51758 7.41499C9.51758 7.54596 9.54341 7.67564 9.59359 7.79662C9.64377 7.91759 9.71732 8.02748 9.81002 8.11999L13.69 12L9.81002 15.88C9.62304 16.067 9.518 16.3206 9.518 16.585C9.518 16.8494 9.62304 17.103 9.81002 17.29C9.997 17.477 10.2506 17.582 10.515 17.582C10.7794 17.582 11.033 17.477 11.22 17.29L15.81 12.7C15.9027 12.6075 15.9763 12.4976 16.0265 12.3766C16.0766 12.2556 16.1025 12.126 16.1025 11.995C16.1025 11.864 16.0766 11.7343 16.0265 11.6134C15.9763 11.4924 15.9027 11.3825 15.81 11.29L11.22 6.69999C10.84 6.31999 10.2 6.31999 9.81002 6.70999Z" fill="white"/>
<path d="M17.81 6.70999C17.7173 6.80251 17.6438 6.91239 17.5936 7.03337C17.5434 7.15434 17.5176 7.28402 17.5176 7.41499C17.5176 7.54596 17.5434 7.67564 17.5936 7.79662C17.6438 7.91759 17.7173 8.02748 17.81 8.11999L21.69 12L17.81 15.88C17.623 16.067 17.518 16.3206 17.518 16.585C17.518 16.8494 17.623 17.103 17.81 17.29C17.997 17.477 18.2506 17.582 18.515 17.582C18.7794 17.582 19.033 17.477 19.22 17.29L23.81 12.7C23.9027 12.6075 23.9763 12.4976 24.0265 12.3766C24.0766 12.2556 24.1025 12.126 24.1025 11.995C24.1025 11.864 24.0766 11.7343 24.0265 11.6134C23.9763 11.4924 23.9027 11.3825 23.81 11.29L19.22 6.69999C18.84 6.31999 18.2 6.31999 17.81 6.70999Z" fill="white" fill-opacity="0.5"/>
</g>
<defs>
<clipPath id="clip0_359_766">
<rect width="24" height="24" fill="white" transform="translate(0.5)"/>
</clipPath>
</defs>
</svg>
