<svg width="32" height="32" viewBox="0 0 32 32" fill="none" xmlns="http://www.w3.org/2000/svg">
<g id="Circular progress indicator">
<path id="Progress bar" d="M16 4C17.8937 4 19.7606 4.44819 21.4479 5.30792C23.1352 6.16765 24.5951 7.41452 25.7082 8.94658C26.8213 10.4786 27.556 12.2524 27.8523 14.1228C28.1485 15.9932 27.9979 17.9072 27.4127 19.7082C26.8275 21.5092 25.8243 23.1462 24.4853 24.4853C23.1462 25.8243 21.5092 26.8275 19.7082 27.4127C17.9072 27.9979 15.9932 28.1485 14.1228 27.8523C12.2524 27.556 10.4786 26.8213 8.94658 25.7082L10.4983 23.5724C11.6933 24.4406 13.0769 25.0137 14.5358 25.2448C15.9947 25.4758 17.4876 25.3583 18.8924 24.9019C20.2972 24.4454 21.574 23.663 22.6185 22.6185C23.663 21.574 24.4454 20.2972 24.9019 18.8924C25.3583 17.4876 25.4758 15.9947 25.2448 14.5358C25.0137 13.0769 24.4406 11.6933 23.5724 10.4983C22.7042 9.30333 21.5655 8.33077 20.2494 7.66018C18.9332 6.98959 17.4771 6.64 16 6.64V4Z" fill="#A87BFF"/>
</g>
</svg>
