<svg width="17" height="18" viewBox="0 0 17 18" fill="none" xmlns="http://www.w3.org/2000/svg">
<g id="heroicons:eye-16-solid" clip-path="url(#clip0_363_1530)">
<g id="Group">
<path id="Vector" d="M8.50147 11.2865C9.00872 11.2865 9.4952 11.085 9.85388 10.7263C10.2126 10.3676 10.4141 9.88116 10.4141 9.3739C10.4141 8.86665 10.2126 8.38017 9.85388 8.02149C9.4952 7.66281 9.00872 7.4613 8.50147 7.4613C7.99421 7.4613 7.50774 7.66281 7.14905 8.02149C6.79037 8.38017 6.58887 8.86665 6.58887 9.3739C6.58887 9.88116 6.79037 10.3676 7.14905 10.7263C7.50774 11.085 7.99421 11.2865 8.50147 11.2865Z" fill="#DFCEFF"/>
<path id="Vector_2" fill-rule="evenodd" clip-rule="evenodd" d="M0.0603295 9.73095C-0.0201098 9.49711 -0.0201098 9.2431 0.0603295 9.00926C0.667738 7.25397 1.80741 5.73178 3.32063 4.65467C4.83386 3.57756 6.64531 2.99916 8.50273 3C10.3601 3.00084 12.1711 3.58089 13.6833 4.65937C15.1956 5.73785 16.3339 7.26107 16.9397 9.01691C17.0201 9.25075 17.0201 9.50476 16.9397 9.7386C16.3325 11.4943 15.1929 13.017 13.6795 14.0945C12.1661 15.1719 10.3544 15.7505 8.49664 15.7497C6.63888 15.7489 4.82765 15.1686 3.31525 14.0898C1.80285 13.0109 0.664596 11.4872 0.0590544 9.73095M12.3265 9.37393C12.3265 10.3884 11.9235 11.3614 11.2061 12.0788C10.4887 12.7961 9.51578 13.1991 8.50128 13.1991C7.48677 13.1991 6.51381 12.7961 5.79645 12.0788C5.07908 11.3614 4.67607 10.3884 4.67607 9.37393C4.67607 8.35942 5.07908 7.38647 5.79645 6.6691C6.51381 5.95174 7.48677 5.54873 8.50128 5.54873C9.51578 5.54873 10.4887 5.95174 11.2061 6.6691C11.9235 7.38647 12.3265 8.35942 12.3265 9.37393Z" fill="#DFCEFF"/>
</g>
</g>
<defs>
<clipPath id="clip0_363_1530">
<rect width="17" height="17" fill="white" transform="translate(0 0.5)"/>
</clipPath>
</defs>
</svg>
