<svg width="19" height="18" viewBox="0 0 19 18" fill="none" xmlns="http://www.w3.org/2000/svg">
<g id="mdi:eye-off">
<path id="Vector" d="M9.35318 6.05263L12.0909 8.71368V8.57895C12.0909 7.90893 11.8179 7.26635 11.3321 6.79257C10.8462 6.3188 10.1872 6.05263 9.5 6.05263H9.35318ZM5.63955 6.72632L6.97818 8.03158C6.935 8.20842 6.90909 8.38526 6.90909 8.57895C6.90909 9.24897 7.18206 9.89155 7.66795 10.3653C8.15384 10.8391 8.81285 11.1053 9.5 11.1053C9.69 11.1053 9.88 11.08 10.0614 11.0379L11.4 12.3432C10.8214 12.6211 10.1823 12.7895 9.5 12.7895C8.35475 12.7895 7.2564 12.3459 6.44658 11.5562C5.63677 10.7666 5.18182 9.69565 5.18182 8.57895C5.18182 7.91368 5.35455 7.29053 5.63955 6.72632ZM0.863636 2.06947L2.83273 3.98947L3.22136 4.36842C1.79636 5.46316 0.673636 6.89474 0 8.57895C1.49409 12.2758 5.18182 14.8947 9.5 14.8947C10.8386 14.8947 12.1168 14.6421 13.2827 14.1874L13.6541 14.5411L16.1759 17L17.2727 15.9305L1.96045 1M9.5 4.36842C10.6453 4.36842 11.7436 4.81203 12.5534 5.60166C13.3632 6.39128 13.8182 7.46225 13.8182 8.57895C13.8182 9.1179 13.7059 9.64 13.5073 10.1116L16.0377 12.5789C17.3332 11.5263 18.3695 10.1453 19 8.57895C17.5059 4.88211 13.8182 2.26316 9.5 2.26316C8.29091 2.26316 7.13364 2.47368 6.04545 2.85263L7.91955 4.66316C8.41182 4.47789 8.93864 4.36842 9.5 4.36842Z" fill="#DFCEFF"/>
</g>
</svg>
