<svg width="48" height="48" viewBox="0 0 48 48" fill="none" xmlns="http://www.w3.org/2000/svg">
<g clip-path="url(#clip0_758_4477)">
<path fill-rule="evenodd" clip-rule="evenodd" d="M24 4C12.954 4 4 12.954 4 24C4 35.046 12.954 44 24 44C35.046 44 44 35.046 44 24C44 12.954 35.046 4 24 4ZM8 24C8.00065 20.67 9.04025 17.4233 10.9739 14.7122C12.9075 12.0012 15.6388 9.96106 18.7871 8.87614C21.9354 7.79121 25.3437 7.7156 28.5369 8.65984C31.7302 9.60408 34.5493 11.5211 36.6013 14.1437C38.6532 16.7663 39.8358 19.9638 39.9841 23.2905C40.1324 26.6171 39.2391 29.9071 37.4287 32.702C35.6183 35.4968 32.981 37.6571 29.8844 38.8817C26.7878 40.1064 23.3863 40.3344 20.154 39.534L21.59 32.786C22.964 33.978 24.67 34.432 26.308 34.402C28.104 34.368 29.908 33.762 31.418 32.812C32.922 31.866 34.266 30.492 35.002 28.798C35.7975 26.9718 36.126 24.9764 35.9577 22.9916C35.7894 21.0068 35.1296 19.0951 34.038 17.4289C32.9463 15.7628 31.457 14.3946 29.7045 13.4478C27.952 12.501 25.9914 12.0053 23.9995 12.0055C22.0076 12.0056 20.047 12.5017 18.2947 13.4488C16.5423 14.396 15.0533 15.7644 13.962 17.4308C12.8706 19.0971 12.2112 21.0089 12.0433 22.9937C11.8753 24.9786 12.2041 26.974 13 28.8C13.0996 29.0486 13.2481 29.2747 13.4367 29.4648C13.6253 29.655 13.8502 29.8053 14.098 29.9069C14.3458 30.0084 14.6115 30.0592 14.8793 30.0562C15.1471 30.0531 15.4115 29.9964 15.657 29.8892C15.9024 29.782 16.1238 29.6266 16.3081 29.4323C16.4923 29.2379 16.6357 29.0085 16.7296 28.7577C16.8235 28.5069 16.8661 28.2398 16.8548 27.9722C16.8436 27.7046 16.7787 27.442 16.664 27.2C16.1899 26.1102 15.9646 24.9284 16.0045 23.7406C16.0444 22.5528 16.3484 21.3888 16.8944 20.3332C17.4405 19.2776 18.2149 18.3569 19.1613 17.6381C20.1078 16.9193 21.2025 16.4203 22.3659 16.1776C23.5293 15.9348 24.7322 15.9543 25.8872 16.2347C27.0421 16.515 28.1201 17.0492 29.0427 17.7983C29.9653 18.5475 30.7095 19.4928 31.221 20.5655C31.7326 21.6383 31.9987 22.8115 32 24C32 26.19 31.18 28.234 29.286 29.426C28.31 30.042 27.208 30.386 26.234 30.402C25.28 30.422 24.55 30.134 24.044 29.604C23.548 29.084 23.002 28.08 23.002 26.2C23.002 25 23.46 24 24.008 21.416C24.0673 21.1574 24.0746 20.8896 24.0294 20.6281C23.9841 20.3667 23.8874 20.1169 23.7447 19.8932C23.602 19.6695 23.4162 19.4765 23.1981 19.3253C22.9801 19.1742 22.7342 19.0679 22.4747 19.0127C22.2151 18.9575 21.9472 18.9545 21.6866 19.0039C21.4259 19.0532 21.1776 19.1539 20.9562 19.3002C20.7349 19.4464 20.5448 19.6352 20.3971 19.8556C20.2494 20.0761 20.1471 20.3236 20.096 20.584L16.376 38.07C13.8417 36.697 11.7256 34.6647 10.2512 32.188C8.7768 29.7113 7.99899 26.8823 8 24Z" fill="url(#paint0_linear_758_4477)"/>
</g>
<defs>
<linearGradient id="paint0_linear_758_4477" x1="24" y1="4" x2="24" y2="44" gradientUnits="userSpaceOnUse">
<stop stop-color="#9F55FF"/>
<stop offset="1" stop-color="#F56DFF"/>
</linearGradient>
<clipPath id="clip0_758_4477">
<rect width="48" height="48" fill="white"/>
</clipPath>
</defs>
</svg>
