<svg width="50" height="50" viewBox="0 0 50 50" fill="none" xmlns="http://www.w3.org/2000/svg">
<path d="M13.9714 30.6027C14.1641 30.7958 14.3931 30.949 14.6451 31.0536C14.8971 31.1581 15.1673 31.2119 15.4401 31.2119C15.713 31.2119 15.9832 31.1581 16.2352 31.0536C16.4872 30.949 16.7161 30.7958 16.9089 30.6027L24.9922 22.5193L33.0755 30.6027C33.4651 30.9922 33.9934 31.211 34.5443 31.211C35.0952 31.211 35.6235 30.9922 36.013 30.6027C36.4026 30.2131 36.6214 29.6848 36.6214 29.1339C36.6214 28.583 36.4026 28.0547 36.013 27.6652L26.4505 18.1027C26.2578 17.9095 26.0289 17.7563 25.7768 17.6518C25.5248 17.5472 25.2546 17.4934 24.9818 17.4934C24.7089 17.4934 24.4388 17.5472 24.1867 17.6518C23.9347 17.7563 23.7058 17.9095 23.513 18.1027L13.9505 27.6652C13.1589 28.4568 13.1589 29.7902 13.9714 30.6027Z" fill="#A87BFF"/>
</svg>
