<svg width="42" height="42" viewBox="0 0 42 42" fill="none" xmlns="http://www.w3.org/2000/svg">
<path d="M23.3438 31.1562C23.3438 31.6198 23.2063 32.0729 22.9488 32.4584C22.6912 32.8438 22.3252 33.1442 21.8969 33.3216C21.4687 33.499 20.9974 33.5454 20.5428 33.455C20.0881 33.3645 19.6705 33.1413 19.3427 32.8135C19.0149 32.4858 18.7917 32.0681 18.7013 31.6135C18.6109 31.1588 18.6573 30.6876 18.8347 30.2593C19.0121 29.8311 19.3125 29.465 19.6979 29.2075C20.0833 28.95 20.5365 28.8125 21 28.8125C21.6216 28.8125 22.2178 29.0594 22.6573 29.499C23.0968 29.9385 23.3438 30.5346 23.3438 31.1562ZM21 10.0625C16.6914 10.0625 13.1875 13.2168 13.1875 17.0938V17.875C13.1875 18.2894 13.3521 18.6868 13.6452 18.9799C13.9382 19.2729 14.3356 19.4375 14.75 19.4375C15.1644 19.4375 15.5618 19.2729 15.8549 18.9799C16.1479 18.6868 16.3125 18.2894 16.3125 17.875V17.0938C16.3125 14.9453 18.416 13.1875 21 13.1875C23.584 13.1875 25.6875 14.9453 25.6875 17.0938C25.6875 19.2422 23.584 21 21 21C20.5856 21 20.1882 21.1646 19.8952 21.4576C19.6021 21.7507 19.4375 22.1481 19.4375 22.5625V24.125C19.4375 24.5394 19.6021 24.9368 19.8952 25.2299C20.1882 25.5229 20.5856 25.6875 21 25.6875C21.4144 25.6875 21.8118 25.5229 22.1049 25.2299C22.3979 24.9368 22.5625 24.5394 22.5625 24.125V23.9844C26.125 23.3301 28.8125 20.4883 28.8125 17.0938C28.8125 13.2168 25.3086 10.0625 21 10.0625ZM41.3125 21C41.3125 25.0174 40.1212 28.9446 37.8892 32.285C35.6573 35.6254 32.4849 38.2289 28.7733 39.7663C25.0616 41.3037 20.9775 41.706 17.0372 40.9222C13.097 40.1384 9.47766 38.2039 6.6369 35.3631C3.79615 32.5224 1.86157 28.903 1.07781 24.9628C0.294046 21.0225 0.696301 16.9384 2.23371 13.2267C3.77111 9.51512 6.37462 6.34274 9.71499 4.11077C13.0554 1.87881 16.9826 0.6875 21 0.6875C26.3855 0.693187 31.5487 2.83507 35.3568 6.64317C39.1649 10.4513 41.3068 15.6145 41.3125 21ZM38.1875 21C38.1875 17.6006 37.1795 14.2776 35.2909 11.4511C33.4023 8.62467 30.718 6.4217 27.5774 5.12082C24.4368 3.81994 20.9809 3.47957 17.6469 4.14275C14.3128 4.80594 11.2503 6.44289 8.84661 8.8466C6.4429 11.2503 4.80595 14.3128 4.14276 17.6469C3.47958 20.9809 3.81995 24.4368 5.12083 27.5774C6.42171 30.718 8.62468 33.4023 11.4511 35.2909C14.2776 37.1795 17.6006 38.1875 21 38.1875C25.5568 38.1823 29.9255 36.3699 33.1477 33.1477C36.3699 29.9255 38.1823 25.5568 38.1875 21Z" fill="#A87BFF"/>
</svg>
