<svg width="48" height="52" viewBox="0 0 48 52" fill="none" xmlns="http://www.w3.org/2000/svg">
<g filter="url(#filter0_d_758_4463)">
<path d="M33 6H15C12.6131 6 10.3239 6.94821 8.63604 8.63604C6.94821 10.3239 6 12.6131 6 15V33C6 35.3869 6.94821 37.6761 8.63604 39.364C10.3239 41.0518 12.6131 42 15 42H33C35.3869 42 37.6761 41.0518 39.364 39.364C41.0518 37.6761 42 35.3869 42 33V15C42 12.6131 41.0518 10.3239 39.364 8.63604C37.6761 6.94821 35.3869 6 33 6Z" stroke="url(#paint0_linear_758_4463)" stroke-width="3" stroke-linecap="round" stroke-linejoin="round"/>
<path d="M16 32.75V21.5M24 32.75V27M24 27V21.5M24 27C24 24.424 26.444 23 28.8 23C32 23 32 25.75 32 28.75V32.75M16 15.25V16.25" stroke="url(#paint1_linear_758_4463)" stroke-width="3" stroke-linecap="round" stroke-linejoin="round"/>
</g>
<defs>
<filter id="filter0_d_758_4463" x="-4" y="0" width="56" height="56" filterUnits="userSpaceOnUse" color-interpolation-filters="sRGB">
<feFlood flood-opacity="0" result="BackgroundImageFix"/>
<feColorMatrix in="SourceAlpha" type="matrix" values="0 0 0 0 0 0 0 0 0 0 0 0 0 0 0 0 0 0 127 0" result="hardAlpha"/>
<feOffset dy="4"/>
<feGaussianBlur stdDeviation="2"/>
<feComposite in2="hardAlpha" operator="out"/>
<feColorMatrix type="matrix" values="0 0 0 0 0 0 0 0 0 0 0 0 0 0 0 0 0 0 0.25 0"/>
<feBlend mode="normal" in2="BackgroundImageFix" result="effect1_dropShadow_758_4463"/>
<feBlend mode="normal" in="SourceGraphic" in2="effect1_dropShadow_758_4463" result="shape"/>
</filter>
<linearGradient id="paint0_linear_758_4463" x1="24" y1="6" x2="24" y2="42" gradientUnits="userSpaceOnUse">
<stop stop-color="#9F55FF"/>
<stop offset="1" stop-color="#F56DFF"/>
</linearGradient>
<linearGradient id="paint1_linear_758_4463" x1="24" y1="15.25" x2="24" y2="32.75" gradientUnits="userSpaceOnUse">
<stop stop-color="#9F55FF"/>
<stop offset="1" stop-color="#F56DFF"/>
</linearGradient>
</defs>
</svg>
