<svg width="250" height="90" viewBox="0 0 250 90" fill="none" xmlns="http://www.w3.org/2000/svg">
<g id="logo_color 3">
<path id="Vector" d="M58.4215 12.9813C58.4215 10.6222 56.5853 8.70337 54.329 8.70337C52.6728 8.70337 51.244 9.73661 50.6003 11.2179C49.9565 9.73661 48.5278 8.70337 46.8728 8.70337C44.6153 8.70337 42.7803 10.6222 42.7803 12.9813C42.7803 13.479 42.8615 13.9558 43.0128 14.4012C43.184 14.908 43.4428 15.3691 43.7728 15.7688C43.9128 15.9399 44.0653 16.098 44.2303 16.243L50.4728 22.7233C50.5115 22.7637 50.5615 22.7833 50.6115 22.7833C50.6615 22.7833 50.7128 22.7637 50.7515 22.7233L57.2265 16.0013C57.6465 15.5611 57.9753 15.0282 58.1815 14.4325C58.3378 13.9793 58.424 13.4907 58.424 12.9826L58.4215 12.9813Z" fill="#BF9EFF"/>
<path id="Vector_2" d="M38.1187 73.1534C38.1187 75.5778 36.9275 77.4117 34.545 78.6553C32.665 79.6376 30.4387 80.1287 27.8687 80.1287C24.1075 80.1287 20.8875 78.7271 18.2075 75.9239C15.5275 73.1207 14.1875 69.7506 14.1875 65.8162V37.2383H7.37C5.08125 37.2383 3.9375 36.0431 3.9375 33.6513C3.9375 31.2596 5.08125 30.114 7.37 30.114H14.1875V12.2799C14.1875 9.88951 15.3237 8.69299 17.5962 8.69299C19.8687 8.69299 21.005 9.88951 21.005 12.2799V30.114H27.8225C30.11 30.114 31.255 31.2936 31.255 33.6513C31.255 36.0091 30.11 37.2383 27.8225 37.2383H21.005V65.8214C21.005 67.79 21.6725 69.4789 23.0087 70.8883C24.3437 72.2991 25.955 73.0045 27.8412 73.0045C29.3812 73.0045 30.8575 72.4153 32.2725 71.2358C33.6862 70.0563 34.7237 69.4672 35.3837 69.4672C37.2062 69.4672 38.1175 70.695 38.1175 73.1521L38.1187 73.1534Z" fill="#8B4FFF"/>
<path id="Vector_3" d="M54.0089 33.6566V76.5392C54.0089 78.9322 52.8727 80.13 50.6002 80.13C48.3277 80.13 47.1914 78.9335 47.1914 76.5392V33.6566C47.1914 31.2962 48.3264 30.1154 50.6002 30.1154C52.8739 30.1154 54.0089 31.2962 54.0089 33.6566Z" fill="#8B4FFF"/>
<path id="Vector_4" d="M111.036 76.5405C111.036 78.9336 109.891 80.1288 107.603 80.1288C105.847 80.1288 104.766 79.2444 104.36 77.4758C104.202 76.7874 104.14 75.1664 104.172 72.6114C99.5008 77.6221 93.812 80.1288 87.1058 80.1288C80.3995 80.1288 74.8895 77.6874 70.2045 72.8021C65.5183 67.9167 63.1758 62.0164 63.1758 55.0973C63.1758 48.1781 65.5208 42.3275 70.212 37.4434C74.9033 32.5581 80.5433 30.1154 87.1333 30.1154C93.7233 30.1154 99.5433 32.6208 104.22 37.6328V12.2878C104.22 9.8922 105.355 8.69568 107.628 8.69568C109.902 8.69568 111.037 9.89219 111.037 12.2839V76.5405H111.036ZM104.218 55.0973C104.218 50.2106 102.545 46.0124 99.197 42.5025C95.8495 38.9926 91.8183 37.2384 87.1045 37.2384C82.3908 37.2384 78.3595 38.9926 75.012 42.5025C71.6645 46.0124 69.9908 50.2093 69.9908 55.0973C69.9908 59.9852 71.6645 64.2318 75.012 67.7417C78.3595 71.2516 82.3895 73.0058 87.1045 73.0058C91.8195 73.0058 95.8495 71.2516 99.197 67.7417C102.545 64.2318 104.218 60.0179 104.218 55.0973Z" fill="#8B4FFF"/>
<path id="Vector_5" d="M167.971 76.5405C167.971 78.9336 166.826 80.1288 164.539 80.1288C162.783 80.1288 161.701 79.2444 161.295 77.4758C161.138 76.7874 161.075 75.1664 161.108 72.6114C156.436 77.6221 150.748 80.1288 144.041 80.1288C137.335 80.1288 131.825 77.6874 127.14 72.8021C122.454 67.9167 120.111 62.0164 120.111 55.0973C120.111 48.1781 122.456 42.3275 127.148 37.4434C131.839 32.5581 137.479 30.1154 144.069 30.1154C150.659 30.1154 156.479 32.6208 161.155 37.6328V12.2878C161.155 9.8922 162.29 8.69568 164.564 8.69568C166.838 8.69568 167.973 9.89219 167.973 12.2839V76.5405H167.971ZM161.154 55.0973C161.154 50.2106 159.48 46.0124 156.133 42.5025C152.785 38.9926 148.754 37.2384 144.04 37.2384C139.326 37.2384 135.295 38.9926 131.948 42.5025C128.6 46.0124 126.926 50.2093 126.926 55.0973C126.926 59.9852 128.6 64.2318 131.948 67.7417C135.295 71.2516 139.325 73.0058 144.04 73.0058C148.755 73.0058 152.785 71.2516 156.133 67.7417C159.48 64.2318 161.154 60.0179 161.154 55.0973Z" fill="#8B4FFF"/>
<path id="Vector_6" d="M196.367 76.5431C196.367 78.9348 195.222 80.13 192.935 80.13C189.205 80.13 186 78.7285 183.32 75.9266C180.64 73.1247 179.3 69.7572 179.3 65.8241V12.2852C179.3 9.89347 180.444 8.69696 182.732 8.69696C185.021 8.69696 186.117 9.89347 186.117 12.2865V65.8293C186.117 67.7965 186.791 69.4842 188.139 70.8936C189.486 72.3031 191.085 73.0071 192.934 73.0071C195.221 73.0071 196.366 74.1867 196.366 76.5444L196.367 76.5431Z" fill="#8B4FFF"/>
<path id="Vector_7" d="M246.061 65.7836C246.061 66.3413 245.904 66.9631 245.591 67.6502C243.679 71.4174 240.787 74.4387 236.917 76.7142C233.046 78.991 229.026 80.1287 224.859 80.1287C218.276 80.1287 212.642 77.6873 207.957 72.802C203.271 67.9167 200.929 62.0164 200.929 55.0972C200.929 48.1781 203.271 42.3274 207.957 37.4434C212.642 32.558 218.277 30.1154 224.859 30.1154C227.21 30.1154 229.67 30.5739 232.24 31.4921C235.155 32.5424 238.006 34.2156 240.796 36.5107C244.275 39.3635 246.015 42.0531 246.015 44.5794C246.015 45.8582 245.451 46.8261 244.322 47.4818L212.071 66.9631C215.456 70.9929 219.719 73.0071 224.859 73.0071C229.999 73.0071 234.544 70.9602 237.741 66.8664C238.149 66.2447 238.799 65.3186 239.692 64.0907C240.586 62.8628 241.517 62.2489 242.49 62.2489C243.462 62.2489 244.26 62.5924 244.981 63.2808C245.702 63.9692 246.062 64.8039 246.062 65.7862L246.061 65.7836ZM237.636 43.3136C234.215 39.263 229.947 37.2383 224.832 37.2383C220.124 37.2383 216.1 38.9939 212.757 42.5037C209.415 46.0136 207.745 50.2132 207.745 55.1011C207.745 57.0696 208.04 58.9728 208.632 60.8094L237.637 43.3136H237.636Z" fill="#8B4FFF"/>
</g>
</svg>
